<?xml version="1.0" encoding="UTF-8"?> <svg xmlns="http://www.w3.org/2000/svg" width="352.5" height="266.7"><style>.st0{fill:#dcddde}.st1{fill:none;stroke:#00a2e0;stroke-width:3;stroke-miterlimit:10}</style><path class="st0" d="M346.5 8.6l-2.6-2.5V2.5l2.6-2.5h3.5l2.5 2.5v3.6L350 8.6zM2.5 94.6L0 92.1v-3.6L2.5 86h3.6l2.5 2.5v3.6l-2.5 2.5zM88.5 94.6L86 92.1v-3.6l2.5-2.5h3.6l2.5 2.5v3.6l-2.5 2.5zM174.5 94.6l-2.5-2.5v-3.6l2.5-2.5h3.6l2.5 2.5v3.6l-2.5 2.5zM260.5 94.6l-2.5-2.5v-3.6l2.5-2.5h3.5l2.6 2.5v3.6l-2.6 2.5zM346.5 94.6l-2.6-2.5v-3.6l2.6-2.5h3.5l2.5 2.5v3.6l-2.5 2.5z"></path><g><path class="st0" d="M2.5 180.7L0 178.1v-3.5l2.5-2.5h3.6l2.5 2.5v3.5l-2.5 2.6zM88.5 180.7l-2.5-2.6v-3.5l2.5-2.5h3.6l2.5 2.5v3.5l-2.5 2.6zM174.5 180.7l-2.5-2.6v-3.5l2.5-2.5h3.6l2.5 2.5v3.5l-2.5 2.6zM260.5 180.7l-2.5-2.6v-3.5l2.5-2.5h3.5l2.6 2.5v3.5l-2.6 2.6zM346.5 180.7l-2.6-2.6v-3.5l2.6-2.5h3.5l2.5 2.5v3.5l-2.5 2.6z"></path></g><g><path class="st0" d="M2.5 266.7L0 264.2v-3.6l2.5-2.5h3.6l2.5 2.5v3.6l-2.5 2.5zM88.5 266.7l-2.5-2.5v-3.6l2.5-2.5h3.6l2.5 2.5v3.6l-2.5 2.5zM174.5 266.7l-2.5-2.5v-3.6l2.5-2.5h3.6l2.5 2.5v3.6l-2.5 2.5zM260.5 266.7l-2.5-2.5v-3.6l2.5-2.5h3.5l2.6 2.5v3.6l-2.6 2.5zM346.5 266.7l-2.6-2.5v-3.6l2.6-2.5h3.5l2.5 2.5v3.6l-2.5 2.5z"></path></g><path class="st1" d="M257.8 131.7l-8.3-5.9v-22.7h-22.8l-5.9-8.3v-8.9l5.9-8.3h22.8V54.8l8.3-5.9h8.9l8.3 5.9v22.8h22.8l5.9 8.3v8.9l-5.9 8.3H275v22.7l-8.3 5.9z"></path></svg> 