<?xml version="1.0" encoding="UTF-8"?> <svg xmlns="http://www.w3.org/2000/svg" xmlns:xlink="http://www.w3.org/1999/xlink" id="Layer_1" viewBox="0 0 183 182.4"><style>.st1{opacity:.7;clip-path:url(#SVGID_2_)}.st2{opacity:.1}.st3{opacity:.5}.st3,.st4,.st5{fill:#fff}.st5{opacity:.3}.st6,.st7{opacity:.8;fill:#fff}.st7{opacity:.7}.st8,.st9{opacity:.9;fill:#fff}.st9{opacity:.4}.st10{opacity:.2}.st11{opacity:.1;fill:#fff}.st12{fill:#e72d43}.st15{fill:#c12126}</style><path class="st12" d="M59.1 180.9c-3.2 0-6.1-1.2-8.4-3.5L5 131.8c-2.2-2.2-3.5-5.2-3.5-8.3V58.9c0-3.1 1.2-6.1 3.5-8.3L50.8 4.9C53 2.7 56 1.5 59.1 1.5h64.8c3.2 0 6.1 1.2 8.4 3.5L178 50.6c2.2 2.2 3.5 5.2 3.5 8.3v64.5c0 3.2-1.2 6.1-3.5 8.3l-45.8 45.6c-2.2 2.2-5.2 3.5-8.4 3.5H59.1z"></path><defs><path id="SVGID_4_" d="M59.1 180.9c-3.2 0-6.1-1.2-8.4-3.5L5 131.8c-2.2-2.2-3.5-5.2-3.5-8.3V58.9c0-3.1 1.2-6.1 3.5-8.3L50.8 4.9C53 2.7 56 1.5 59.1 1.5h64.8c3.2 0 6.1 1.2 8.4 3.5L178 50.6c2.2 2.2 3.5 5.2 3.5 8.3v64.5c0 3.2-1.2 6.1-3.5 8.3l-45.8 45.6c-2.2 2.2-5.2 3.5-8.4 3.5H59.1z"></path></defs><clipPath id="SVGID_2_"><use xlink:href="#SVGID_4_" overflow="visible"></use></clipPath><g class="st1"><g class="st2"><path class="st3" d="M91.9 111.3l-18 10.4v20.9L92 152.9l18.1-10.4v-20.8z"></path><path class="st4" d="M132.3 180.7v-20.8l-18.1-10.4-18.1 10.4v20.9M176.6 159.8l-18.1-10.4-18.1 10.5v20.8M158.3 72.9l-18 10.4v20.9l18.1 10.3 18.1-10.4V83.3z"></path><path class="st5" d="M180.6 111.1l-18.1 10.5v20.8l18.1 10.3"></path><path class="st7" d="M136.1 34.7L118 45.2V66l18.2 10.3 18-10.4V45.1z"></path><path class="st8" d="M95.8 1.6v20.8l18.1 10.4L132 22.3V1.5"></path><path class="st4" d="M51.5 1.7v20.8l18.1 10.3 18.1-10.4V1.6"></path><path class="st9" d="M47.5 34.9L29.4 45.3v20.9l18.1 10.3 18.1-10.4V45.3z"></path></g><g class="st2"><path class="st3" d="M111.2 141.1l-13.9 8v16l13.9 7.9 13.9-8-.1-15.9z"></path><path class="st4" d="M142.1 178.4l-13.9-8-13.9 8M162 111.7l-13.8 8v16l13.9 7.9 13.9-8-.1-15.9z"></path><path class="st5" d="M179.1 141l-13.9 8v15.9l13.9 8"></path><path class="st6" d="M144.9 23.8l-13.9 8 .1 16 13.9 7.9 13.8-8V31.8z"></path><path class="st5" d="M114 2.5l.1 16 13.8 7.9 13.9-8V2.5"></path><path class="st7" d="M145 82.4l-13.9 8 .1 16 13.8 7.9 13.9-8V90.4z"></path><path class="st8" d="M128 53.2l-13.9 8v15.9l13.9 8 13.9-8-.1-16z"></path><path class="st4" d="M94 53.2l-13.8 8v16l13.9 7.9 13.8-8V61.2zM77 24l-13.9 8 .1 15.9 13.9 8 13.8-8v-16z"></path><path class="st9" d="M43 24l-13.8 8v16l13.9 7.9 13.8-8V32zM77.1 82.6l-13.9 8 .1 15.9 13.8 8 13.9-8v-16z"></path><path class="st4" d="M12.1 2.7l.1 16 13.9 8 13.8-8.1V2.7"></path><g><path class="st4" d="M127.2 166.3l-16 9.2-16-9.2v-18.4l16-9.2 16 9.2v18.4zm-31.6-18.1v17.9l15.6 8.9 15.5-9v-17.9l-15.6-8.9-15.5 9zM112.2 177.2l16-9.2 16 9.2m-16-8.8l-15.5 9M146.1 177.1l16-9.2 16 9.2m-.4.2l-15.6-8.9M178.1 136.8l-16 9.2-16-9.2v-18.4l16-9.2 16 9.2v18.4zm-31.6-18.1v17.9l15.6 8.9 15.5-9v-17.9l-15.6-8.9-15.5 9zM179.1 175.4l-16-9.2v-18.4l16-9.2m0 .4l-15.5 9v17.9l15.6 8.9M161 49l-16 9.2-16-9.2V30.6l16-9.2 16 9.2V49zm-31.7-18.2v17.9l15.6 8.9 15.5-9V30.7l-15.6-8.9-15.5 9zM143.9 1.3v18.4l-16 9.2-16-9.2V1.3m.4.3v17.9l15.6 8.9 15.5-9V1.5M161 107.6l-16 9.2-16-9.2V89.2l16-9.2 16 9.2v18.4zm-31.6-18.1v17.9l15.6 8.9 15.5-9V89.4L145 80.5l-15.6 9zM144 78.3l-16 9.2-16-9.2V59.9l16-9.2 16 9.2v18.4zm-31.6-18.1v17.9L128 87l15.5-9V60.1L128 51.2l-15.6 9zM110.1 78.4l-16 9.2-16-9.2L78 60l16-9.2 16 9.2.1 18.4zM78.5 60.3v17.9l15.6 8.9 15.5-9V60.2L94 51.3l-15.5 9zM93.1 49.1l-16 9.2-16-9.2V30.7l16-9.2 16 9.2v18.4zM61.4 31v17.9L77 57.8l15.5-9V30.9L77 22l-15.6 9zM59.1 49.2l-16 9.2-16-9.2V30.8l16-9.2 16 9.2v18.4zM27.5 31v17.9l15.6 8.9 15.5-9V30.9L43 22.1 27.5 31zM93.1 107.7l-16 9.2-16-9.2V89.3l16-9.2 16 9.2v18.4zM61.5 89.6v17.9l15.6 8.9 15.5-9V89.5L77 80.6l-15.5 9zM42 1.5v18.4l-16 9.2-16-9.2V1.5m.4.3v17.9L26 28.6l15.5-9V1.7"></path></g></g><g class="st10"><path class="st11" d="M21.3 10.2c-.4.8-.1 1.8.7 2.3.2.1.5.2.7.2l.1 33.1c-.5.1-1 .4-1.3.8-.3.5-.3 1.1-.1 1.6m.2.4c.1.2.3.4.6.5.8.5 1.8.2 2.3-.5l28.8 16.5c-.4.8-.1 1.8.7 2.3.2.1.4.2.7.2l.1 33.1c-.6.1-1.1.3-1.4.9-.3.5-.3 1.1 0 1.6l-28.8 16.6c-.1-.2-.3-.4-.6-.5-.8-.5-1.8-.2-2.3.5m33.4-52.2c.6 0 1.1-.3 1.4-.9.3-.5.3-1.1 0-1.6l28.7-16.6c.1.2.3.4.6.5.8.5 1.8.2 2.3-.5L116.9 65c-.4.8-.1 1.8.7 2.3.2.1.5.2.7.2l.1 33.1c-.6.1-1.1.3-1.4.9-.3.5-.3 1.1 0 1.6l-28.7 16.6c-.1-.2-.3-.4-.6-.5-.8-.5-1.8-.2-2.3.5l-28.8-16.5c.4-.8.1-1.8-.7-2.3-.2-.1-.5-.2-.7-.2l-.1-33.1zm63.7 33l-.1-33.1c.6-.1 1.1-.3 1.4-.9.3-.5.3-1.1 0-1.6l28.8-16.6c.1.2.3.4.6.5.8.5 1.8.2 2.3-.5l28.8 16.5c-.4.8-.1 1.8.7 2.3.2.1.5.2.7.2l.1 33.1c-.6.1-1.1.3-1.4.9-.3.5-.3 1.1 0 1.6L152 119.6c-.1-.2-.3-.4-.6-.5-.8-.5-1.8-.2-2.3.5l-28.8-16.5c.4-.8.1-1.8-.7-2.3-.3-.1-.6-.2-.8-.2zm65.2 75.8c.3-.5.3-1.1 0-1.6M21.5 120.1c-.4.8-.1 1.8.7 2.3.9.5 2 .2 2.4-.7.3-.5.3-1.1 0-1.6l28.8-16.6c.1.2.3.4.6.5.8.5 1.8.2 2.3-.5L85.2 120c-.4.8-.1 1.8.7 2.3.9.5 2 .2 2.4-.7.3-.5.3-1.1 0-1.6l28.8-16.6c.1.2.3.4.6.5.8.5 1.8.2 2.3-.5l28.8 16.5c-.4.8-.1 1.8.7 2.3.2.1.5.2.7.2l.1 33.1c-.6.1-1.1.3-1.4.9-.5.9-.2 1.9.7 2.4.8.5 1.8.2 2.3-.5l28.8 16.5c-.4.8-.1 1.8.7 2.3M151.7 9.7c-.1-.2-.3-.4-.6-.5-.8-.5-1.8-.2-2.3.5l-.2.3c-.4.8-.1 1.8.7 2.3.2.1.5.2.7.2l.1 33.1c-.6.1-1.1.3-1.4.9-.3.5-.3 1.1-.1 1.6L120 64.7c-.1-.2-.3-.4-.6-.5-.8-.5-1.8-.2-2.3.5L88.3 48.2c.4-.8.1-1.8-.7-2.3-.9-.5-2-.2-2.4.7-.3.5-.3 1.1 0 1.6L56.4 64.8c-.1-.2-.3-.4-.5-.5-.8-.5-1.8-.2-2.3.5L24.7 48.3c.4-.8.1-1.8-.7-2.3-.2-.1-.5-.2-.8-.2l-.1-33.1c.6 0 1.1-.3 1.4-.9.5-.9.2-1.9-.7-2.4-.8-.5-1.8-.2-2.3.5m162.2 54.7c-.1-.2-.3-.4-.6-.5-.8-.5-1.8-.2-2.3.5L152 48.1c.4-.8.1-1.8-.7-2.3-.2-.1-.5-.2-.7-.2l-.1-33.1c.6-.1 1.1-.3 1.4-.9.3-.5.3-1.1.1-1.6m31.9 93c.4-.8.1-1.8-.7-2.3-.2-.1-.5-.2-.7-.2l-.1-33.1c.6-.1 1.1-.3 1.4-.9.3-.5.3-1.1 0-1.6m.1 109.6c-.1-.2-.3-.4-.6-.5-.8-.5-1.8-.2-2.3.5L152.2 158c.4-.8.1-1.8-.7-2.3-.2-.1-.5-.2-.7-.2l-.1-33.1c.6-.1 1.1-.3 1.4-.9.3-.5.3-1.1.1-1.6l28.7-16.6c.1.2.3.4.6.5.8.5 1.8.2 2.3-.5"></path><path class="st5" d="M3.9 38c.5 0 .9-.3 1.1-.7.2-.4.2-.9 0-1.3l23-13.3c.1.2.3.3.5.4.6.4 1.4.2 1.9-.4l23.1 13.2c-.3.7-.1 1.4.6 1.8.2.1.4.2.5.2v26.5c-.4.1-.8.3-1.1.7-.2.4-.2.9-.1 1.2l-23 13.3c-.1-.2-.3-.3-.4-.4-.6-.4-1.4-.2-1.9.4l-23-13.2c.3-.7.1-1.4-.6-1.8-.2-.1-.4-.2-.6-.2V38zm26.7 43.2c.2-.4.2-.9 0-1.3l23-13.3c.1.2.3.3.5.4.6.4 1.4.2 1.9-.4l23.1 13.2c-.3.7-.1 1.4.6 1.8.2.1.4.2.5.2v26.5c-.4 0-.9.3-1.1.7-.2.4-.2.9 0 1.3l-23 13.3c-.1-.2-.3-.3-.4-.4-.6-.4-1.4-.2-1.9.4l-23.1-13.2c.3-.7.1-1.4-.6-1.8-.2-.1-.4-.2-.6-.2V81.9c.4-.1.8-.3 1.1-.7zm49.9.6c.5 0 .9-.3 1.1-.7.2-.4.2-.9 0-1.3l23-13.3c.1.2.3.3.4.4.6.4 1.4.2 1.9-.4L130 79.7c-.3.7-.1 1.4.6 1.8.2.1.4.2.6.2v26.5c-.4 0-.9.3-1.1.7-.2.4-.2.9 0 1.3l-23 13.3c-.1-.2-.3-.3-.4-.4-.6-.4-1.4-.2-1.9.4l-23.1-13.2c.3-.7.1-1.4-.6-1.8-.2-.1-.4-.2-.6-.2V81.8zm51 26.4V81.7c.4 0 .9-.3 1.1-.7.2-.4.2-.9 0-1.3l23-13.3c.1.2.3.3.4.4.6.4 1.4.2 1.9-.4L181 79.6c-.3.7-.1 1.4.6 1.8.2.1.4.2.6.2v26.5c-.4 0-.9.3-1.1.7-.2.4-.2.9 0 1.3l-23 13.3c-.1-.2-.3-.3-.4-.4-.6-.4-1.4-.2-1.9.4l-23.1-13.2c.3-.7.1-1.4-.6-1.8-.2-.1-.4-.2-.6-.2zm51.9-86.1c.3-.7.1-1.4-.6-1.8-.2-.1-.4-.2-.6-.2h-.3c-.4 0-.9.3-1.1.7-.2.4-.2.9 0 1.3l-23 13.3c-.1-.2-.3-.3-.4-.4-.6-.4-1.4-.2-1.9.4l-.1.2c-.3.7-.1 1.4.6 1.8.2.1.4.2.6.2v26.5c-.4 0-.9.3-1.1.7-.2.4-.2.9 0 1.3l-23 13.3c-.1-.2-.3-.3-.4-.4-.6-.4-1.4-.2-1.9.4l-23.1-13.2c.3-.7.1-1.5-.6-1.8-.7-.4-1.6-.2-2 .5-.2.4-.2.9 0 1.3l-23 13.3c-.1-.2-.3-.3-.4-.4-.6-.4-1.4-.2-1.9.4L56.1 66.4c.3-.7.1-1.5-.6-1.8-.2-.1-.4-.2-.6-.2V37.9c.5 0 .9-.3 1.1-.7.4-.7.2-1.6-.5-2-.6-.4-1.4-.2-1.9.4L30.5 22.4c.3-.7.1-1.4-.6-1.8-.7-.4-1.6-.2-2 .5-.2.4-.2.9 0 1.3l-23 13.3c-.1-.2-.3-.3-.4-.4-.7-.4-1.6-.2-2 .5-.4.7-.2 1.6.5 2 .2.1.4.2.6.2v26.5c-.4 0-.9.3-1.1.7-.4.7-.2 1.6.5 2 .6.4 1.4.2 1.9-.4L28 79.9c-.3.7-.1 1.4.6 1.8.2.1.4.2.6.2v26.5c-.4 0-.9.3-1.1.7-.4.7-.2 1.6.5 2 .6.4 1.4.2 1.9-.4l23.1 13.2c-.3.7-.1 1.4.6 1.8.7.4 1.6.2 2-.5.2-.4.2-.9 0-1.3l23-13.3c.1.2.3.3.4.4.6.4 1.4.2 1.9-.4l23.1 13.2c-.3.7-.1 1.4.6 1.8.7.4 1.6.2 2-.5.2-.4.2-.9 0-1.3l23-13.3c.1.2.3.3.4.4.6.4 1.4.2 1.9-.4l23.1 13.2c-.3.7-.1 1.4.6 1.8.2.1.4.2.6.2v26.5c-.4 0-.9.3-1.1.7-.4.7-.2 1.6.5 2 .6.4 1.4.2 1.9-.4l23.1 13.2c-.3.7-.1 1.4.6 1.8.7.4 1.6.2 2-.5.2-.4.2-.9 0-1.3m-.4-88.3c-.1-.2-.3-.3-.4-.4-.6-.4-1.4-.2-1.9.4L158 66.2c.3-.7.1-1.4-.6-1.8-.2-.1-.4-.2-.6-.2V37.7c.4 0 .9-.3 1.1-.7.2-.4.2-.9 0-1.3l23-13.3c.1.2.3.3.4.4.6.4 1.4.2 1.9-.4m.4 87.7c.3-.7.1-1.4-.6-1.8-.2-.1-.4-.2-.6-.2V81.6c.4 0 .9-.3 1.1-.7.2-.4.2-.9 0-1.3m.1 87.8c-.1-.2-.3-.3-.4-.4-.6-.4-1.4-.2-1.9.4l-23.1-13.2c.3-.7.1-1.4-.6-1.8-.2-.1-.4-.2-.6-.2v-26.5c.4 0 .9-.3 1.1-.7.2-.4.2-.9 0-1.3l23-13.3c.1.2.3.3.4.4.6.4 1.4.2 1.9-.4"></path><path class="st4" d="M48.4 63.1c.3 0 .7-.2.8-.5.2-.3.2-.7 0-1l17.3-10 .3.3c.5.3 1.1.1 1.4-.3l17.3 9.9c-.2.5 0 1.1.4 1.4.1.1.3.1.4.1v19.9c-.3 0-.6.2-.8.5-.2.3-.2.6 0 .9l-17.3 10-.3-.3c-.5-.3-1.1-.1-1.4.3l-17.3-9.9c.2-.5.1-1.1-.4-1.4-.1-.1-.3-.1-.4-.1V63.1zm20 32.5c.2-.3.2-.7 0-1l17.3-10 .3.3c.5.3 1.1.1 1.4-.3l17.3 9.9c-.2.5-.1 1.1.4 1.4.1.1.3.1.4.1v19.9c-.3 0-.6.2-.8.5-.2.3-.2.7 0 1l-17.3 10-.3-.3c-.5-.3-1.1-.1-1.4.3l-17.3-9.9c.2-.5 0-1.1-.4-1.4-.1-.1-.3-.1-.4-.1V96.1c.3 0 .6-.2.8-.5zm37.5.4c.3 0 .7-.2.8-.5.2-.3.2-.7 0-1l17.3-10 .3.3c.5.3 1.1.1 1.4-.3l17.3 9.9c-.2.5-.1 1.1.4 1.4.1.1.3.1.4.1v19.9c-.3 0-.6.2-.8.5-.2.3-.2.7 0 1l-17.3 10-.3-.3c-.5-.3-1.1-.1-1.4.3l-17.3-9.9c.2-.5.1-1.1-.4-1.4-.1-.1-.3-.1-.4-.1V96zm38.3 19.9V96c.3 0 .6-.2.8-.5.2-.3.2-.7 0-1l17.3-10 .3.3c.5.3 1.1.1 1.4-.3l17.3 9.9c-.2.5-.1 1.1.4 1.4.1.1.3.1.4.1v19.9c-.3 0-.6.2-.8.5-.2.3-.2.7 0 1l-17.3 10-.3-.3c-.5-.3-1.1-.1-1.4.3l-17.3-9.9c.2-.5.1-1.1-.4-1.4-.1-.1-.3-.1-.4-.1zm39-64.7c.2-.5.1-1.1-.4-1.4-.1-.1-.3-.1-.4-.1h-.2c-.3 0-.6.2-.8.5-.2.3-.2.7 0 1l-17.3 10-.3-.3c-.5-.3-1.1-.1-1.4.3l-.1.2c-.2.5-.1 1.1.4 1.4.1.1.3.1.4.1v19.9c-.3 0-.6.2-.8.5-.2.3-.2.7 0 1l-17.3 10-.3-.3c-.5-.3-1.1-.1-1.4.3L126 84.4c.2-.5.1-1.1-.4-1.4-.5-.3-1.2-.1-1.5.4-.2.3-.2.7 0 1l-17.3 10-.3-.3c-.5-.3-1.1-.1-1.4.3l-17.3-9.9c.2-.5.1-1.1-.4-1.4-.4-.1-.6-.1-.7-.1V63.1c.3 0 .7-.2.8-.5.3-.5.1-1.2-.4-1.5-.5-.3-1.1-.1-1.4.3l-17.3-9.9c.2-.5.1-1.1-.4-1.4-.5-.3-1.2-.1-1.5.4-.2.3-.2.7 0 1l-17.3 10-.3-.3c-.5-.3-1.2-.1-1.5.4-.3.5-.1 1.2.4 1.5.1.1.3.1.4.1v19.9c-.3 0-.6.2-.8.5-.3.5-.1 1.2.4 1.5.5.3 1.1.1 1.4-.3l17.3 9.9c-.2.5-.1 1.1.4 1.4.1.1.3.1.4.1v19.9c-.3 0-.6.2-.8.5-.3.5-.1 1.2.4 1.5.5.3 1.1.1 1.4-.3l17.3 9.9c-.2.5-.1 1.1.4 1.4.5.3 1.2.1 1.5-.4.2-.3.2-.7 0-1l17.3-10 .3.3c.5.3 1.1.1 1.4-.3l17.3 9.9c-.2.5-.1 1.1.4 1.4.5.3 1.2.1 1.5-.4.2-.3.2-.7 0-1l17.3-10 .3.3c.5.3 1.1.1 1.4-.3l17.3 9.9c-.2.5-.1 1.1.4 1.4.1.1.3.1.4.1v19.9c-.3 0-.6.2-.8.5-.3.5-.1 1.2.4 1.5.5.3 1.1.1 1.4-.3l17.3 9.9c-.2.5-.1 1.1.4 1.4.5.3 1.2.1 1.5-.4.2-.3.2-.7 0-1m.1-66.3l-.3-.3c-.5-.3-1.1-.1-1.4.3l-17.3-9.9c.2-.5.1-1.1-.4-1.4-.1-.1-.3-.1-.4-.1V62.9c.3 0 .6-.2.8-.5.2-.3.2-.7 0-1l17.3-10 .3.3c.5.3 1.1.1 1.4-.3m.2 65.9c.2-.5.1-1.1-.4-1.4-.1-.1-.3-.1-.4-.1V95.9c.3 0 .7-.2.8-.5.2-.3.2-.7 0-1m0 65.9l-.3-.3c-.5-.3-1.1-.1-1.4.3l-17.3-9.9c.2-.5.1-1.1-.4-1.4-.1-.1-.3-.1-.4-.1V129c.3 0 .6-.2.8-.5.2-.3.2-.7 0-1l17.3-10 .3.3c.5.3 1.1.1 1.4-.3"></path></g></g><path class="st15" d="M123.9 3c2.8 0 5.4 1.1 7.3 3L177 51.6c2 1.9 3 4.5 3 7.3v64.5c0 2.8-1.1 5.3-3 7.3l-45.8 45.6c-2 1.9-4.5 3-7.3 3H59.1c-2.8 0-5.4-1.1-7.3-3L6 130.7c-2-1.9-3-4.5-3-7.3V58.9c0-2.8 1.1-5.3 3-7.3L51.8 6c2-1.9 4.5-3 7.3-3h64.8m0-3H59.1c-3.5 0-6.9 1.4-9.4 3.9L3.9 49.5C1.4 52 0 55.4 0 58.9v64.5c0 3.5 1.4 6.9 3.9 9.4l45.8 45.6c2.5 2.5 5.9 3.9 9.4 3.9h64.8c3.5 0 6.9-1.4 9.4-3.9l45.8-45.6c2.5-2.5 3.9-5.9 3.9-9.4V58.9c0-3.5-1.4-6.9-3.9-9.4L133.3 3.9c-2.5-2.5-5.9-3.9-9.4-3.9z"></path></svg> 