<?xml version="1.0" encoding="UTF-8"?> <svg xmlns="http://www.w3.org/2000/svg" id="Layer_1" viewBox="0 0 170.1 256.1"><style>.st3{fill:#fff}.st26{fill:none}</style><path class="st3" d="M119.7 14.4l.5-1.1h1.6l.5 1.1c0 .1.1.2.2.2h.1c.1-.1.2-.2.1-.4l-1.5-3.6c0-.1-.1-.2-.2-.2s-.2.1-.2.2l-1.5 3.6c-.1.1 0 .3.1.4.1 0 .2-.1.3-.2zm1.3-3.1l.6 1.4h-1.2l.6-1.4z"></path><path class="st3" d="M114.1 22.8h4.9c.7 0 1.2-.5 1.2-1.2v-4.9c0-.2-.1-.5-.2-.6h2c-.1.2-.2.4-.2.6v4.9c0 .7.5 1.2 1.2 1.2h4.9c.7 0 1.2-.5 1.2-1.2v-4.9c0-.7-.5-1.2-1.2-1.2h-3.4c.1-.2.2-.4.2-.6V10c0-.7-.5-1.2-1.2-1.2h-4.9c-.7 0-1.2.5-1.2 1.2v4.9c0 .2.1.5.2.6h-3.4c-.7 0-1.2.5-1.2 1.2v4.9c-.1.7.4 1.2 1.1 1.2zm13.7-6.7c.4 0 .6.3.6.6v4.9c0 .4-.3.6-.6.6H123c-.4 0-.6-.3-.6-.6v-4.9c0-.4.3-.6.6-.6h4.8zm-9.9-6.1c0-.4.3-.6.6-.6h4.9c.4 0 .6.3.6.6v4.9c0 .4-.3.6-.6.6h-4.9c-.4 0-.6-.3-.6-.6V10zm-4.5 6.7c0-.4.3-.6.6-.6h4.9c.4 0 .6.3.6.6v4.9c0 .4-.3.6-.6.6H114c-.4 0-.6-.3-.6-.6v-4.9z"></path><path class="st3" d="M125.5 21.3c.7 0 1.4-.4 1.8-1.1.1-.1 0-.3-.1-.4-.1-.1-.3 0-.4.1-.3.5-.8.8-1.3.8-.8 0-1.5-.7-1.5-1.6 0-.9.7-1.6 1.5-1.6.4 0 .8.2 1.1.5.1.1.3.1.4 0 .1-.1.1-.3 0-.4-.4-.5-.9-.7-1.5-.7-1.1 0-2 1-2 2.2 0 1.3.9 2.2 2 2.2zM115.2 21.3h1.5c.8 0 1.4-.6 1.4-1.4 0-.6-.4-1.1-.9-1.3.1-.2.2-.4.2-.6 0-.6-.5-1-1-1h-1.1c-.1 0-.3.1-.3.3V21c0 .2.1.3.2.3zm.3-3.7h.9c.3 0 .5.2.5.5s-.2.5-.5.5h-.9v-1zm0 1.5h1.2c.5 0 .9.4.9.9s-.4.9-.9.9h-1.2v-1.8zM80.5 243.1c.1-.2.2-.4.2-.6 0-.6-.5-1-1-1h-1.1c-.1 0-.3.1-.3.3v3.7c0 .1.1.3.3.3H80c.8 0 1.4-.6 1.4-1.4 0-.6-.4-1.1-.9-1.3zm-1.7-1.1h.9c.3 0 .5.2.5.5s-.2.5-.5.5h-.9v-1zm1.2 3.2h-1.2v-1.7H80c.5 0 .9.4.9.9 0 .4-.4.8-.9.8zM84.5 235c0-.1-.1-.2-.2-.2s-.2.1-.2.2l-1.5 3.6c-.1.1 0 .3.1.4.1.1.3 0 .4-.1l.5-1.1h1.6l.5 1.1c0 .1.1.2.2.2h.1c.1-.1.2-.2.1-.4l-1.6-3.7zm-.8 2.2l.6-1.4.6 1.4h-1.2z"></path><path class="st3" d="M91.1 240h-3.4c.1-.2.2-.4.2-.6v-4.9c0-.7-.5-1.2-1.2-1.2h-4.9c-.7 0-1.2.5-1.2 1.2v4.9c0 .2.1.5.2.6h-3.4c-.7 0-1.2.5-1.2 1.2v4.9c0 .7.5 1.2 1.2 1.2h4.9c.7 0 1.2-.5 1.2-1.2v-4.9c0-.2-.1-.5-.2-.6h2c-.1.2-.2.4-.2.6v4.9c0 .7.5 1.2 1.2 1.2h4.9c.7 0 1.2-.5 1.2-1.2v-4.9c-.1-.7-.6-1.2-1.3-1.2zm-8.2 6.1c0 .4-.3.6-.6.6h-4.9c-.4 0-.6-.3-.6-.6v-4.9c0-.4.3-.6.6-.6h4.9c.4 0 .6.3.6.6v4.9zm-1.1-6.1c-.4 0-.6-.3-.6-.6v-4.9c0-.4.3-.6.6-.6h4.9c.4 0 .6.3.6.6v4.9c0 .4-.3.6-.6.6h-4.9zm10 6.1c0 .4-.3.6-.6.6h-4.9c-.4 0-.6-.3-.6-.6v-4.9c0-.4.3-.6.6-.6h4.9c.4 0 .6.3.6.6v4.9z"></path><path class="st3" d="M90.1 244.5c-.3.5-.8.8-1.3.8-.8 0-1.5-.7-1.5-1.6 0-.9.7-1.6 1.5-1.6.4 0 .8.2 1.1.5.1.1.3.1.4 0 .1-.1.1-.3 0-.4-.4-.5-.9-.7-1.5-.7-1.1 0-2 1-2 2.2 0 1.2.9 2.2 2 2.2.7 0 1.4-.4 1.8-1.1.1-.1 0-.3-.1-.4-.1-.1-.3-.1-.4.1zM154.3 22.7c3.8 0 6.9-3.1 6.9-6.9 0-3.8-3.1-6.9-6.9-6.9-3.8 0-6.9 3.1-6.9 6.9 0 3.8 3.1 6.9 6.9 6.9zm1.7-.8c.6-.6 1.1-1.5 1.5-2.5h2c-.8 1.2-2.1 2.1-3.5 2.5zm3.8-3.1h-2.2c.2-.8.3-1.8.4-2.8h2.6c-.1 1.1-.3 2-.8 2.8zm.8-3.2H158c0-1-.1-1.9-.4-2.8h2.2c.5.8.7 1.8.8 2.8zm-1.1-3.3h-2c-.3-1.1-.9-1.9-1.5-2.5 1.4.3 2.7 1.2 3.5 2.5zm-5-2.8c1 .2 1.8 1.2 2.4 2.7h-2.4V9.5zm0 3.3h2.5c.2.8.4 1.8.4 2.8h-2.9v-2.8zm0 3.3h2.9c0 1-.2 1.9-.4 2.8h-2.5v-2.8zm0 3.3h2.4c-.5 1.5-1.4 2.6-2.4 2.7v-2.7zm-.5 2.7c-1-.2-1.8-1.2-2.4-2.7h2.4v2.7zm0-3.3h-2.5c-.2-.8-.4-1.8-.4-2.8h2.9v2.8zm0-3.2h-2.9c0-1 .2-1.9.4-2.8h2.5v2.8zm0-6.1v2.7h-2.4c.6-1.5 1.4-2.5 2.4-2.7zm-1.5.2c-.6.6-1.1 1.5-1.5 2.5h-2c.9-1.2 2.1-2.1 3.5-2.5zm-3.8 3.1h2.2c-.2.8-.3 1.8-.4 2.8h-2.6c.1-1 .4-2 .8-2.8zm-.8 3.3h2.6c0 1 .1 1.9.4 2.8h-2.2c-.4-.9-.7-1.8-.8-2.8zm3.2 3.3c.3 1.1.8 1.9 1.5 2.5-1.4-.4-2.7-1.3-3.5-2.5h2zM121 233.4c-3.8 0-6.9 3.1-6.9 6.9 0 3.8 3.1 6.9 6.9 6.9 3.8 0 6.9-3.1 6.9-6.9-.1-3.8-3.2-6.9-6.9-6.9zm-1.8.8c-.6.6-1.1 1.5-1.5 2.5h-2c.9-1.2 2.1-2.1 3.5-2.5zm-3.8 3h2.2c-.2.8-.3 1.8-.4 2.8h-2.6c.1-1 .4-1.9.8-2.8zm-.8 3.3h2.6c0 1 .1 1.9.4 2.8h-2.2c-.4-.8-.7-1.8-.8-2.8zm1.1 3.3h2c.3 1.1.8 1.9 1.5 2.5-1.4-.4-2.6-1.3-3.5-2.5zm5 2.8c-1-.2-1.8-1.2-2.4-2.7h2.4v2.7zm0-3.3h-2.5c-.2-.8-.4-1.8-.4-2.8h2.9v2.8zm0-3.3h-2.9c0-1 .2-1.9.4-2.8h2.5v2.8zm0-3.3h-2.4c.5-1.5 1.4-2.6 2.4-2.7v2.7zm.5-2.7c1 .2 1.8 1.2 2.4 2.7h-2.4V234zm0 3.2h2.5c.2.8.4 1.8.4 2.8h-2.9v-2.8zm0 3.3h2.9c0 1-.2 1.9-.4 2.8h-2.5v-2.8zm0 6.1v-2.7h2.4c-.6 1.5-1.4 2.5-2.4 2.7zm1.5-.2c.6-.6 1.1-1.5 1.5-2.5h2c-.8 1.1-2.1 2-3.5 2.5zm3.8-3.1h-2.2c.2-.8.3-1.8.4-2.8h2.6c-.1 1-.3 2-.8 2.8zm.8-3.3h-2.6c0-1-.1-1.9-.4-2.8h2.2c.5.9.7 1.8.8 2.8zm-3.1-3.3c-.3-1.1-.9-1.9-1.5-2.5 1.4.4 2.7 1.3 3.5 2.5h-2zM84.1 86.8h.4c.2 0 .4-.2.4-.4V86c0-.2-.2-.4-.4-.4h-.4c-.2 0-.4.2-.4.4v.4c0 .3.2.4.4.4zM82.3 85.7h-.4c-.2 0-.4.2-.4.4v.4c0 .2.2.4.4.4h.4c.2 0 .4-.2.4-.4v-.4c-.1-.2-.2-.4-.4-.4zM80.1 82.6v.6c0 .2.2.4.4.4s.4-.2.4-.4v-.6c.3-.1.5-.4.5-.7v-.4c0-.3-.2-.6-.5-.7v-.6c0-.2-.2-.4-.4-.4s-.4.2-.4.4v.6c-.3.1-.5.4-.5.7v.4c0 .4.2.7.5.7zM86.6 85.7h-.4c-.2 0-.4.2-.4.4v.4c0 .2.2.4.4.4h.4c.2 0 .4-.2.4-.4v-.4c0-.2-.2-.4-.4-.4z"></path><path class="st3" d="M80.6 74.9h.7c.2 0 .4-.2.4-.4s-.2-.4-.4-.4h-.7c-.8 0-1.5.7-1.5 1.5V77h-.5c-1.4 0-2.5 1.1-2.5 2.5V86c0 1.4 1.1 2.5 2.5 2.5h11.3c1.4 0 2.5-1.1 2.5-2.5v-6.5c0-1.4-1.1-2.5-2.5-2.5h-.5v-1.5c0-.8-.7-1.5-1.5-1.5h-.7c-.2 0-.4.2-.4.4s.2.4.4.4h.7c.4 0 .7.3.7.7V77h-4v-2.4c.8-.2 1.4-.9 1.4-1.7 0-1-.8-1.7-1.7-1.7s-1.7.8-1.7 1.8c0 .8.6 1.5 1.4 1.7V77h-4v-1.5c-.1-.3.2-.6.6-.6zm2.7-1.9c0-.6.4-1 1-1s1 .4 1 1c0 .5-.4 1-.9 1-.7-.1-1.1-.5-1.1-1zm5.7 4.8h.9c1 0 1.8.8 1.8 1.8v6.5c0 1-.8 1.8-1.8 1.8H78.6c-1 0-1.8-.8-1.8-1.8v-6.5c0-1 .8-1.8 1.8-1.8H89z"></path><path class="st3" d="M77.6 81.8c0 1.6 1.3 2.9 2.9 2.9 1.6 0 2.9-1.3 2.9-2.9 0-1.6-1.3-2.9-2.9-2.9-1.6-.1-2.9 1.3-2.9 2.9zm2.9-2.2c1.2 0 2.2 1 2.2 2.2 0 1.2-1 2.2-2.2 2.2-1.2 0-2.2-1-2.2-2.2 0-1.2 1-2.2 2.2-2.2zM88.1 84.7c1.6 0 2.9-1.3 2.9-2.9 0-1.6-1.3-2.9-2.9-2.9s-2.9 1.3-2.9 2.9c0 1.6 1.3 2.9 2.9 2.9zm0-5.1c1.2 0 2.2 1 2.2 2.2 0 1.2-1 2.2-2.2 2.2-1.2 0-2.2-1-2.2-2.2 0-1.2 1-2.2 2.2-2.2z"></path><path class="st3" d="M87.2 82.1c.1.3.4.5.7.5h.4c.3 0 .6-.2.7-.5h.6c.2 0 .4-.2.4-.4s-.2-.4-.4-.4H89c-.1-.3-.4-.5-.7-.5h-.4c-.3 0-.6.2-.7.5h-.6c-.2 0-.4.2-.4.4s.2.4.4.4h.6zM124.9 112.4h2.5c.2 0 .4-.2.4-.4v-2.6c0-.1 0-.2-.1-.2l-.8-1c-.1-.1-.2-.1-.3-.1h-1.7c-.2 0-.4.2-.4.4v3.6c.1.1.2.3.4.3zm.4-3.6h1.2l.7.8v2.1h-1.8v-2.9zM116.7 116.4c-.4 0-.7.3-.7.7s.3.7.7.7c.4 0 .7-.3.7-.7s-.3-.7-.7-.7zM125.9 116.4c-.4 0-.7.3-.7.7s.3.7.7.7c.4 0 .7-.3.7-.7s-.3-.7-.7-.7z"></path><path class="st3" d="M113 113.6v3.1c0 .2.2.4.4.4h.8c0 1.4 1.1 2.5 2.5 2.5s2.5-1.1 2.5-2.5h4.2c0 1.4 1.1 2.5 2.5 2.5s2.5-1.1 2.5-2.5h.8c.2 0 .4-.2.4-.4v-8c0-.1 0-.2-.1-.2l-1.8-2.2c-.1-.1-.2-.1-.3-.1h-2.5v-1.4c0-.2-.2-.4-.4-.4h-3.3c-.1 0-.1 0-.2.1l-1.2.8h-7.3c-.2 0-.4.2-.4.4v7.1c0 .1 0 .2.1.3l.8.5zm3.7 5.3c-1 0-1.8-.8-1.8-1.8s.8-1.8 1.8-1.8 1.8.8 1.8 1.8-.8 1.8-1.8 1.8zm9.2 0c-1 0-1.8-.8-1.8-1.8s.8-1.8 1.8-1.8 1.8.8 1.8 1.8-.8 1.8-1.8 1.8zm1.4-12l1.6 1.9v7.5h-.6c-.3-1-1.3-1.8-2.4-1.8s-2.1.8-2.4 1.8h-4.4c-.3-1-1.3-1.8-2.4-1.8s-2.1.8-2.4 1.8h-.6v-2.5h8.3v1.4c0 .2.2.4.4.4s.4-.2.4-.4v-8.3h4.5zM113 106h7.1c.1 0 .1 0 .2-.1l1.2-.8h2.8v1.1h-1.8c-.2 0-.4.2-.4.4v6.5h-8.5l-.5-.5V106z"></path><path class="st3" d="M115.4 111.6c.2 0 .4-.2.4-.4v-3.8c0-.2-.2-.4-.4-.4s-.4.2-.4.4v3.8c0 .3.2.4.4.4zM117.5 111.6c.2 0 .4-.2.4-.4v-3.8c0-.2-.2-.4-.4-.4s-.4.2-.4.4v3.8c.1.3.2.4.4.4zM119.7 111.6c.2 0 .4-.2.4-.4v-3.8c0-.2-.2-.4-.4-.4s-.4.2-.4.4v3.8c0 .3.2.4.4.4zM89.9 204.2h-1.7c-.2 0-.4.2-.4.4v3.6c0 .2.2.4.4.4h2.5c.2 0 .4-.2.4-.4v-2.6c0-.1 0-.2-.1-.2l-.8-1c0-.1-.1-.2-.3-.2zm.5 3.6h-1.8V205h1.2l.7.8v2zM80 212.6c-.4 0-.7.3-.7.7 0 .4.3.7.7.7.4 0 .7-.3.7-.7 0-.4-.3-.7-.7-.7zM89.3 212.6c-.4 0-.7.3-.7.7 0 .4.3.7.7.7.4 0 .7-.3.7-.7 0-.4-.3-.7-.7-.7z"></path><path class="st3" d="M91.1 202.5c-.1-.1-.2-.1-.3-.1h-2.5V201c0-.2-.2-.4-.4-.4h-3.3c-.1 0-.1 0-.2.1l-1.2.8H76c-.2 0-.4.2-.4.4v7.1c0 .1 0 .2.1.3l.6.6v3.1c0 .2.2.4.4.4h.8c0 1.4 1.1 2.5 2.5 2.5s2.5-1.1 2.5-2.5h4.2c0 1.4 1.1 2.5 2.5 2.5s2.5-1.1 2.5-2.5h.8c.2 0 .4-.2.4-.4v-8c0-.1 0-.2-.1-.2l-1.7-2.3zm-14.8 6.3v-6.5h7.1c.1 0 .1 0 .2-.1l1.2-.8h2.8v1.1h-1.8c-.2 0-.4.2-.4.4v6.5h-8.5l-.6-.6zm3.7 6.3c-1 0-1.8-.8-1.8-1.8s.8-1.8 1.8-1.8 1.8.8 1.8 1.8-.8 1.8-1.8 1.8zm9.3 0c-1 0-1.8-.8-1.8-1.8s.8-1.8 1.8-1.8 1.8.8 1.8 1.8-.9 1.8-1.8 1.8zm2.9-2.5h-.6c-.3-1-1.3-1.8-2.4-1.8s-2.1.8-2.4 1.8h-4.4c-.3-1-1.3-1.8-2.4-1.8s-2.1.8-2.4 1.8H77V210h8.3v1.4c0 .2.2.4.4.4s.4-.2.4-.4v-8.3h4.5l1.6 1.9v7.6z"></path><path class="st3" d="M78.7 203.3c-.2 0-.4.2-.4.4v3.8c0 .2.2.4.4.4s.4-.2.4-.4v-3.8c-.1-.2-.2-.4-.4-.4zM80.8 203.3c-.2 0-.4.2-.4.4v3.8c0 .2.2.4.4.4s.4-.2.4-.4v-3.8c0-.2-.2-.4-.4-.4zM83 203.3c-.2 0-.4.2-.4.4v3.8c0 .2.2.4.4.4s.4-.2.4-.4v-3.8c0-.2-.2-.4-.4-.4zM13.7 239.9c-1.2 0-2.2 1-2.2 2.2 0 1.2 1 2.2 2.2 2.2 1.2 0 2.2-1 2.2-2.2 0-1.2-1-2.2-2.2-2.2zm0 3.9c-.9 0-1.7-.8-1.7-1.7 0-.9.8-1.7 1.7-1.7.9 0 1.7.8 1.7 1.7 0 1-.7 1.7-1.7 1.7zM22 235.6c-1 0-1.8.8-1.8 1.8s.8 1.8 1.8 1.8 1.8-.8 1.8-1.8c.1-1-.8-1.8-1.8-1.8zm0 3.1c-.7 0-1.3-.6-1.3-1.3 0-.7.6-1.3 1.3-1.3.7 0 1.3.6 1.3 1.3 0 .7-.5 1.3-1.3 1.3z"></path><path class="st3" d="M25.5 236.4h-.4c-.1-.2-.1-.4-.2-.5l.3-.3c.1-.1.2-.2.2-.4 0-.1-.1-.3-.2-.4l-.6-.6c-.2-.2-.6-.2-.8 0l-.3.3c-.2-.1-.4-.2-.5-.2v-.4c0-.3-.3-.6-.6-.6h-.8c-.3 0-.6.3-.6.6v.4c-.2.1-.4.1-.5.2l-.3-.3c-.2-.2-.6-.2-.8 0l-.6.6c-.1.1-.2.2-.2.4 0 .1.1.3.2.4l.3.3c-.1.2-.2.4-.2.5h-.4c-.3 0-.6.3-.6.6v.8c0 .3.3.6.6.6h.4c.1.2.1.4.2.5l-.3.3c-.1.1-.2.2-.2.4 0 .1.1.3.2.4l.6.6c.2.2.6.2.8 0l.3-.3c.2.1.4.2.5.2v.4c0 .3.3.6.6.6h.8c.1 0 .3-.1.4-.2.1-.1.2-.2.2-.4v-.4c.2-.1.4-.1.5-.2l.3.3c.2.2.6.2.8 0l.6-.6c.2-.2.2-.6 0-.8l-.3-.3c.1-.2.2-.4.2-.5h.4c.3 0 .6-.3.6-.6v-.8c0-.3-.2-.6-.6-.6zm0 1.4H25c-.1 0-.2.1-.3.2-.1.3-.2.5-.3.8-.1.1 0 .2 0 .3l.4.4-.6.6-.4-.4c-.1-.1-.2-.1-.3 0-.2.1-.5.3-.8.3-.1 0-.2.1-.2.3v.6h-.9v-.6c0-.1-.1-.2-.2-.3-.3-.1-.5-.2-.8-.3h-.1c-.1 0-.1 0-.2.1l-.4.4-.6-.6.4-.4c.1-.1.1-.2 0-.3-.1-.2-.3-.5-.3-.8 0-.1-.1-.2-.3-.2h-.6v-.9h.6c.1 0 .2-.1.3-.2.1-.3.2-.5.3-.8.1-.1 0-.2 0-.3l-.4-.4.6-.6.4.4c.1.1.2.1.3 0 .2-.1.5-.3.8-.3.1 0 .2-.1.2-.3v-.6h.9v.6c0 .1.1.2.2.3.3.1.5.2.8.3.1.1.2 0 .3 0l.4-.4.6.6-.4.4c-.1.1-.1.2 0 .3.1.2.3.5.3.8 0 .1.1.2.3.2h.6l-.1.8zM18.2 241h-.5c-.1-.3-.2-.5-.3-.8l.4-.4c.1-.1.2-.3.2-.5s-.1-.3-.2-.5l-.7-.7c-.1-.1-.3-.2-.5-.2s-.3.1-.5.2l-.4.4c-.2-.1-.5-.2-.8-.3v-.5c0-.4-.3-.6-.6-.6h-1.1c-.4 0-.6.3-.6.6v.5c-.3.1-.5.2-.8.3l-.4-.4c-.1-.1-.3-.2-.5-.2s-.3.1-.5.2l-.7.7c-.1.1-.2.3-.2.5s.1.3.2.5l.4.4c-.1.2-.2.5-.3.8h-.5c-.4 0-.6.3-.6.6v1.1c0 .4.3.6.6.6h.5c.1.3.2.5.3.8l-.4.4c-.1.1-.2.3-.2.5s.1.3.2.5l.7.7c.1.1.3.2.5.2s.3-.1.5-.2l.4-.4c.2.1.5.2.8.3v.5c0 .4.3.6.6.6h1.1c.2 0 .3-.1.5-.2.1-.1.2-.3.2-.5v-.5c.3-.1.5-.2.8-.3l.4.4c.1.1.3.2.5.2s.3-.1.5-.2l.7-.7c.1-.1.2-.3.2-.5s-.1-.3-.2-.5l-.4-.4c.1-.2.2-.5.3-.8h.5c.2 0 .3-.1.5-.2.1-.1.2-.3.2-.5v-1.1c-.2-.1-.5-.4-.8-.4zm.1 1.7c0 .1-.1.1-.1.1h-.7c-.1 0-.2.1-.3.2-.1.4-.2.7-.4 1-.1.1 0 .2 0 .3l.5.5v.2l-.7.7h-.1-.1l-.5-.5c-.1-.1-.2-.1-.3 0-.3.2-.7.3-1 .4-.1 0-.2.1-.2.3V246.7H13.2c-.1 0-.1 0-.1-.1v-.7c0-.1-.1-.2-.2-.3-.4-.1-.7-.2-1-.4h-.1c-.1 0-.1 0-.2.1l-.5.5H11h-.1l-.7-.7v-.1-.1l.5-.5c.1-.1.1-.2 0-.3-.2-.3-.3-.7-.4-1 0-.1-.1-.2-.3-.2h-.7c-.1 0-.1 0-.1-.1v-1.1c0-.1 0-.1.1-.1h.7c.1 0 .2-.1.3-.2.1-.4.2-.7.4-1 .1-.1 0-.2 0-.3l-.5-.5v-.1-.1l.7-.7h.2l.5.5c.1.1.2.1.3 0 .3-.2.7-.3 1-.4.1 0 .2-.1.2-.3v-.7c0-.1 0-.1.1-.1h1.1c.1 0 .1 0 .1.1v.7c0 .1.1.2.2.3.4.1.7.2 1 .4.1.1.2 0 .3 0l.5-.5h.2l.7.7v.2l-.5.5c-.1.1-.1.2 0 .3.2.3.3.7.4 1 0 .1.1.2.3.2h.7c.1 0 .1 0 .1.1v1zM147.5 152.2H161c.8 0 1.5-.7 1.5-1.5v-13.4c0-.8-.7-1.5-1.5-1.5h-13.4c-.8 0-1.5.7-1.5 1.5v13.4c0 .9.6 1.5 1.4 1.5zm-.7-14.8c0-.4.3-.7.7-.7H161c.4 0 .7.3.7.7v13.4c0 .4-.3.7-.7.7h-13.4c-.4 0-.7-.3-.7-.7v-13.4z"></path><path class="st3" d="M150.8 143.4c.1.1.2.1.3.1.1 0 .2 0 .3-.1l2.4-2.4c.1-.1.1-.2.1-.3s0-.2-.1-.3l-2.4-2.4c-.1-.1-.2-.1-.3-.1-.1 0-.2 0-.3.1l-2.4 2.4c-.1.1-.1.4 0 .5l2.4 2.5zm.2-4.4l1.8 1.8-1.8 1.8-1.8-1.8 1.8-1.8zM157.6 143.1c1.3 0 2.4-1.1 2.4-2.4 0-1.3-1.1-2.4-2.4-2.4-1.3 0-2.4 1.1-2.4 2.4 0 1.3 1.1 2.4 2.4 2.4zm0-4c.9 0 1.6.7 1.6 1.6 0 .9-.7 1.6-1.6 1.6s-1.6-.7-1.6-1.6c-.1-.9.7-1.6 1.6-1.6zM151.3 144.8c-.1-.1-.3-.1-.4 0l-2.3 1.7c-.1.1-.2.3-.1.4l.9 2.7c0 .1.2.3.3.3h2.9c.2 0 .3-.1.3-.3l.9-2.7c0-.1 0-.3-.1-.4l-2.4-1.7zm.9 4.4h-2.4l-.7-2.2 1.9-1.4 1.9 1.4-.7 2.2zM157.3 149.8c.1.1.2.2.3.2.1 0 .2-.1.3-.2l2.4-4.1c.1-.1.1-.3 0-.4-.1-.1-.2-.2-.3-.2h-4.7c-.1 0-.2.1-.3.2s-.1.3 0 .4l2.3 4.1zm2-3.9l-1.7 3-1.7-3h3.4zM9.3 147.1h.5c.1.3.2.5.3.8l-.4.4c-.1.1-.2.3-.2.5s.1.3.2.5l.7.7c.1.1.3.2.5.2s.3-.1.5-.2l.4-.4c.2.1.5.2.8.3v.5c0 .4.3.6.6.6h1.1c.2 0 .3-.1.5-.2.1-.1.2-.3.2-.5v-.5c.3-.1.5-.2.8-.3l.4.4c.1.1.3.2.5.2s.3-.1.5-.2l.7-.7c.1-.1.2-.3.2-.5s-.1-.3-.2-.5l-.4-.4c.1-.2.2-.5.3-.8h.5c.2 0 .3-.1.5-.2.1-.1.2-.3.2-.5v-1.1c0-.4-.3-.6-.6-.6h-.5c-.1-.3-.2-.5-.3-.8l.4-.4c.1-.1.2-.3.2-.5s-.1-.3-.2-.5l-.7-.7c-.1-.1-.3-.2-.5-.2s-.3.1-.5.2l-.4.4c-.2-.1-.5-.2-.8-.3v-.5c0-.4-.3-.6-.6-.6h-1.1c-.4 0-.6.3-.6.6v.5c-.3.1-.5.2-.8.3l-.4-.4c-.1-.1-.3-.2-.5-.2s-.3.1-.5.2l-.7.7c-.1.1-.2.3-.2.5s.1.3.2.5l.4.4c-.1.2-.2.5-.3.8h-.7c-.4 0-.6.3-.6.6v1.1c-.1.5.2.8.6.8zm-.1-1.7c0-.1 0-.1.1-.1h.7c.1 0 .2-.1.3-.2.1-.4.2-.7.4-1 .1-.1 0-.2 0-.3l-.5-.5v-.1-.1l.7-.7h.2l.5.5c.1.1.2.1.3 0 .3-.2.7-.3 1-.4.1 0 .2-.1.2-.3v-.7c0-.1 0-.1.1-.1h1.1c.1 0 .1 0 .1.1v.7c0 .1.1.2.2.3.4.1.7.2 1 .4.1.1.2 0 .3 0l.5-.5h.2l.7.7v.2l-.5.5c-.1.1-.1.2 0 .3.2.3.3.7.4 1 0 .1.1.2.3.2h.7c.1 0 .1 0 .1.1V146.6H17.5c-.1 0-.2.1-.3.2-.1.4-.2.7-.4 1-.1.1 0 .2 0 .3l.5.5v.2l-.7.7h-.1-.1l-.5-.5c-.1-.1-.2-.1-.3 0-.3.2-.7.3-1 .4-.1 0-.2.1-.2.3V150.5H13.2c-.1 0-.1 0-.1-.1v-.7c0-.1-.1-.2-.2-.3-.4-.1-.7-.2-1-.4h-.1c-.1 0-.1 0-.2.1l-.5.5H11h-.1l-.7-.7v-.1-.1l.5-.5c.1-.1.1-.2 0-.3-.2-.3-.3-.7-.4-1 0-.1-.1-.2-.3-.2h-.7c-.1 0-.1 0-.1-.1v-1.2zM24.9 139.7l.3-.3c.1-.1.2-.2.2-.4 0-.1-.1-.3-.2-.4l-.6-.6c-.2-.2-.6-.2-.8 0l-.3.3c-.2-.1-.4-.2-.5-.2v-.4c0-.3-.3-.6-.6-.6h-.8c-.3 0-.6.3-.6.6v.4c-.2.1-.4.1-.5.2l-.3-.3c-.2-.2-.6-.2-.8 0l-.6.6c-.1.1-.2.2-.2.4 0 .1.1.3.2.4l.3.3c-.1.2-.2.4-.2.5h-.4c-.3 0-.6.3-.6.6v.8c0 .3.3.6.6.6h.4c.1.2.1.4.2.5l-.3.3c-.1.1-.2.2-.2.4 0 .1.1.3.2.4l.6.6c.2.2.6.2.8 0l.3-.3c.2.1.4.2.5.2v.4c0 .3.3.6.6.6h.8c.1 0 .3-.1.4-.2.1-.1.2-.2.2-.4v-.4c.2-.1.4-.1.5-.2l.3.3c.2.2.6.2.8 0l.6-.6c.2-.2.2-.6 0-.8l-.3-.3c.1-.2.2-.4.2-.5h.4c.3 0 .6-.3.6-.6v-.8c0-.3-.3-.6-.6-.6h-.4c0-.2-.1-.4-.2-.5zm.7 1.1v.9H25c-.1 0-.2.1-.3.2-.1.3-.2.5-.3.8-.1.1 0 .2 0 .3l.4.4-.6.6-.4-.4c-.1-.1-.2-.1-.3 0-.2.1-.5.3-.8.3-.1 0-.2.1-.2.3v.6h-.9v-.6c0-.1-.1-.2-.2-.3-.3-.1-.5-.2-.8-.3h-.1c-.1 0-.1 0-.2.1l-.4.4-.6-.6.4-.4c.1-.1.1-.2 0-.3-.1-.2-.3-.5-.3-.8 0-.1-.1-.2-.3-.2h-.6v-.9h.6c.1 0 .2-.1.3-.2.1-.3.2-.5.3-.8.1-.1 0-.2 0-.3l-.4-.4.6-.6.4.4c.1.1.2.1.3 0 .2-.1.5-.3.8-.3.1 0 .2-.1.2-.3v-.6h.9v.6c0 .1.1.2.2.3.3.1.5.2.8.3.1.1.2 0 .3 0l.4-.4.6.6-.4.4c-.1.1-.1.2 0 .3.1.2.3.5.3.8 0 .1.1.2.3.2l.6-.1z"></path><path class="st3" d="M22 139.4c-1 0-1.8.8-1.8 1.8S21 143 22 143s1.8-.8 1.8-1.8c.1-1-.8-1.8-1.8-1.8zm0 3.1c-.7 0-1.3-.6-1.3-1.3 0-.7.6-1.3 1.3-1.3.7 0 1.3.6 1.3 1.3 0 .7-.5 1.3-1.3 1.3zM13.7 148.2c1.2 0 2.2-1 2.2-2.2 0-1.2-1-2.2-2.2-2.2-1.2 0-2.2 1-2.2 2.2 0 1.2 1 2.2 2.2 2.2zm0-4c.9 0 1.7.8 1.7 1.7 0 .9-.8 1.7-1.7 1.7-.9 0-1.7-.8-1.7-1.7 0-.9.8-1.7 1.7-1.7zM60.8 142c.8-.4 1-1.4.6-2.2-.2-.4-.6-.6-1-.8-.4-.1-.9-.1-1.2.2l-.3.3-3.2-1.9c0-.1.1-.3.1-.4 0-.9-.7-1.6-1.6-1.6-.9 0-1.6.7-1.6 1.6 0 .1 0 .3.1.4l-3.2 1.9-.3-.3c-.4-.2-.8-.3-1.2-.2-.4.1-.8.4-1 .8-.4.8-.2 1.8.6 2.2.1.1.3.1.4.2v3.7c-.1 0-.3.1-.4.2-.8.4-1 1.4-.6 2.2.2.4.6.6 1 .8.1 0 .3.1.4.1.3 0 .6-.1.8-.2l.3-.3 3.2 1.9c0 .1-.1.3-.1.4 0 .9.7 1.6 1.6 1.6.9 0 1.6-.7 1.6-1.6 0-.1 0-.3-.1-.4l3.2-1.9.3.3c.2.1.5.2.8.2.1 0 .3 0 .4-.1.4-.1.8-.4 1-.8.4-.8.2-1.8-.6-2.2-.1-.1-.3-.1-.4-.2v-3.7c.1 0 .3-.1.4-.2zm-5.6-3.6l3.2 1.9c-.1.3-.1.6 0 .8l-3.2 1.9c-.2-.2-.5-.4-.7-.4v-3.7c.2-.2.5-.3.7-.5zm-.3 5.7c0 .4-.4.8-.8.8s-.8-.4-.8-.8.4-.8.8-.8.8.3.8.8zm-.8-7.7c.4 0 .8.4.8.8s-.4.8-.8.8-.8-.4-.8-.8c-.1-.4.3-.8.8-.8zm-4.4 3.8l3.2-1.9c.2.2.5.4.7.4v3.7c-.3.1-.5.2-.7.4l-3.2-1.9c0-.1.1-.4 0-.7zm-2.3 0c.1-.2.3-.3.5-.4.2-.1.4 0 .6.1.2.1.3.3.4.5.1.2 0 .4-.1.6-.2.4-.7.5-1.1.3-.4-.2-.5-.7-.3-1.1zm1.5 7.5c-.1.2-.2.4-.4.5-.2.1-.4.1-.6.1-.2-.1-.4-.2-.5-.4-.2-.4-.1-.9.3-1.1.1-.1.3-.1.4-.1.3 0 .6.1.7.4.1.2.2.4.1.6zm-.4-1.8v-3.7c.3-.1.5-.2.7-.4l3.2 1.9c0 .1-.1.3-.1.4s0 .3.1.4l-3.2 1.9c-.1-.2-.4-.4-.7-.5zm4.4 3.9l-3.2-1.9c.1-.3.1-.6 0-.8l3.2-1.9c.2.2.5.4.7.4v3.7c-.2.1-.5.3-.7.5zm1.2 1.9c-.4 0-.8-.4-.8-.8s.4-.8.8-.8.8.4.8.8c0 .5-.4.8-.8.8zm4.3-3.8l-3.2 1.9c-.2-.2-.5-.4-.7-.4v-3.7c.3-.1.5-.2.7-.4l3.2 1.9c0 .1-.1.4 0 .7zm.4-1.5l-3.2-1.9c0-.1.1-.3.1-.4s0-.3-.1-.4l3.2-1.9c.2.2.5.4.7.4v3.7c-.2.1-.5.3-.7.5zm1.9 1.5c-.1.2-.3.3-.5.4-.2.1-.4 0-.6-.1-.2-.1-.3-.3-.4-.5-.1-.2 0-.4.1-.6.1-.3.4-.4.7-.4.1 0 .3 0 .4.1.4.2.5.7.3 1.1zm-1.4-6.8c-.1-.2-.1-.4-.1-.6.1-.2.2-.4.4-.5.1-.1.3-.1.4-.1h.2c.2.1.4.2.5.4.2.4.1.9-.3 1.1-.4.2-.9 0-1.1-.3zM92 144.9l-3.7-2v-4.1l-4.1-2.3-4.1 2.3v4.1l-3.7 2v4.5l4.1 2.3 3.7-2 3.7 2 4.1-2.3v-4.5zm-11.4 1.8l-2.8-1.6 2.8-1.6 2.8 1.6-2.8 1.6zm3.3-5.4v3.1l-2.8-1.6v-3.1l2.8 1.6zm.8 3.1v-3.1l2.8-1.6v3.1l-2.8 1.6zm0 1.4l2.8 1.6v3.1l-2.8-1.6v-3.1zm3.2.9l-2.8-1.6 2.8-1.6 2.8 1.6-2.8 1.6zm-.8-7.7l-2.8 1.6-2.8-1.6 2.8-1.6 2.8 1.6zm-9.7 6.8l2.8 1.6v3.1l-2.8-1.6v-3.1zm3.6 4.7v-3.1l2.8-1.6v3.1l-2.8 1.6zm7.3 0v-3.1l2.8-1.6v3.1l-2.8 1.6zM120.1 43.9c.1.1.2.2.3.2.1 0 .2 0 .2-.1 2.8-2 5.1-2.9 6.2-2.3.4.2.7.5.7.8 0 .2-.1.4-.3.5-.3.1-.6.1-.9-.1-.4-.2-.8-.5-1-.7-.2-.1-.4-.1-.5.1-.1.2-.1.4.1.5.3.2.6.4 1 .7.6.3 1.2.4 1.7.1.4-.2.7-.7.7-1.2 0-.3-.2-1-1.1-1.4-.8-.4-1.9-.3-3.1.2l-.3-.2c-.2-.1-.4-.1-.5.1-.1.1-.1.3 0 .4-1.1.5-2.1 1.2-3.1 1.8-.2.1-.3.4-.1.6zM115.6 49.7c0 1.9 1.5 3.4 3.4 3.4s3.4-1.5 3.4-3.4-1.5-3.4-3.4-3.4-3.4 1.5-3.4 3.4zm2.6 2.5s-.1 0 0 0c-1.1-.3-1.8-1.3-1.8-2.5.5.4 1.1.5 1.6.5.3 0 .5 0 .7-.1.2.6.2 1.5-.5 2.1zm.8.2c.6-.8.6-1.8.5-2.4.5-.1 1.4-.2 2 .6-.3 1-1.3 1.8-2.5 1.8zm.9-5.2c1.1.3 1.8 1.3 1.8 2.5-.8-.7-1.8-.6-2.4-.5-.1-.5-.1-1.4.6-2zm-1.3 2.2c-.5.1-1.4.2-2-.6.4-1 1.4-1.7 2.5-1.7-.7.7-.6 1.8-.5 2.3z"></path><path class="st3" d="M113.7 49.7c0 2.9 2.4 5.3 5.3 5.3s5.3-2.4 5.3-5.3c0-2.2-1.3-4.1-3.3-4.9-.6-.3-1.3-.4-2-.4-2.9 0-5.3 2.4-5.3 5.3zm9.9 0c0 2.5-2.1 4.6-4.6 4.6-2.5 0-4.6-2.1-4.6-4.6s2.1-4.6 4.6-4.6c.6 0 1.2.1 1.7.3 1.8.8 2.9 2.4 2.9 4.3zM154.3 42.1c-.2 0-.3.1-.4.2l-1.2 3.2c-.1.2 0 .4.2.5.2.1.4 0 .5-.2l.2-.5h1.3l.2.6c.1.1.2.2.4.2h.1c.2-.1.3-.3.2-.5l-1.2-3.2c0-.2-.1-.3-.3-.3zm-.4 2.4l.4-1 .4 1h-.8z"></path><path class="st3" d="M157.3 45.9c.2 0 .4-.2.4-.4V41c0-.2-.2-.4-.4-.4h-6c-.2 0-.4.2-.4.4v6c0 .2.2.4.4.4h6c.2 0 .4-.2.4-.4s-.2-.4-.4-.4h-5.6v-5.2h5.2v4.1c0 .3.1.4.4.4zM158.4 50.5c.2 0 .4.1.6.2.2.1.4.1.5-.1.1-.2.1-.4-.1-.5-.3-.2-.7-.3-1-.3-1.1 0-2 .9-2 2s.9 2 2 2c.3 0 .6-.1.9-.2.2-.1.3-.3.2-.5-.1-.2-.3-.3-.5-.2-.2.1-.4.1-.6.1-.7 0-1.2-.5-1.2-1.2s.6-1.3 1.2-1.3zM147.5 55.1h6c.2 0 .4-.2.4-.4s-.2-.4-.4-.4h-5.6v-5.2h5.2v4.1c0 .2.2.4.4.4s.4-.2.4-.4v-4.5c0-.2-.2-.4-.4-.4h-6c-.2 0-.4.2-.4.4v6c0 .2.2.4.4.4z"></path><path class="st3" d="M155.1 48.3c-.2 0-.4.2-.4.4v6c0 .2.2.4.4.4h6c.2 0 .4-.2.4-.4s-.2-.4-.4-.4h-5.6v-5.2h5.2v4.1c0 .2.2.4.4.4s.4-.2.4-.4v-4.5c0-.2-.2-.4-.4-.4h-6zM150.7 49.7h-1.4c-.2 0-.4.2-.4.4v3.2c0 .2.2.4.4.4h1.8c.4 0 1-.4 1-1.2 0-.5-.3-.8-.5-1 .1-.2.1-.4.1-.6 0-.8-.7-1.1-1-1.2zm-1 .8h.9c.1 0 .3.1.3.4 0 .4-.3.4-.3.4h-1v-.8zm1.3 2.4h-1.4v-.8h1.3c.1 0 .3.1.3.4.1.4-.2.4-.2.4zM21.4 178.4v-4.5l-4-2.2-4.4 2.5 4 2.2v4.5l4.4-2.5zm-.8-.5l-2.8 1.6v-3.1l2.8-1.6v3.1zm-6-3.8l2.8-1.6 2.8 1.6-2.8 1.6-2.8-1.6z"></path><path class="st3" d="M27 175.2v-4.5l-4-2.2-4.4 2.5 4 2.2v4.5l4.4-2.5zm-.8-.5l-2.8 1.6v-3.1l2.8-1.6v3.1zm-6-3.8l2.8-1.6 2.8 1.6-2.8 1.6-2.8-1.6zM15.8 181.6v-4.5l-4-2.2-4 2.2v4.5l4 2.2 4-2.2zm-.8-.5l-2.8 1.6v-3.1L15 178v3.1zm-3.3-5.3l2.8 1.6-2.8 1.6-2.8-1.6 2.8-1.6zm-.4 6.9l-2.8-1.6V178l2.8 1.6v3.1zM51 179.4c.2 0 .4-.2.4-.4v-.6h.6c.2 0 .4-.2.4-.4s-.2-.4-.4-.4h-.6v-.6c0-.2-.2-.4-.4-.4s-.4.2-.4.4v.6H50c-.2 0-.4.2-.4.4s.2.4.4.4h.6v.6c.1.2.2.4.4.4zM58.4 178.1c0-.2-.2-.4-.4-.4s-.4.2-.4.4.2.4.4.4c.3 0 .4-.2.4-.4zM54.1 172.4c.2 0 .5-.2.5-.5 0-.2-.2-.5-.5-.5-.2 0-.5.2-.5.5s.2.5.5.5zM54.1 170.5c.2 0 .5-.2.5-.5 0-.2-.2-.5-.5-.5-.2 0-.5.2-.5.5s.2.5.5.5zM51.4 175.2c0 .2.2.4.4.4h4.5c.2 0 .4-.2.4-.4s-.2-.4-.4-.4h-4.5c-.2 0-.4.2-.4.4zM56.2 177.7c-.2 0-.4.2-.4.4s.2.4.4.4.4-.2.4-.4-.2-.4-.4-.4zM57.1 179.4c.2 0 .4-.2.4-.4s-.2-.4-.4-.4-.4.2-.4.4.2.4.4.4zM57.1 177.6c.2 0 .4-.2.4-.4s-.2-.4-.4-.4-.4.2-.4.4.2.4.4.4zM54.1 174.4c.2 0 .5-.2.5-.5 0-.2-.2-.5-.5-.5-.2 0-.5.2-.5.5s.2.5.5.5z"></path><path class="st3" d="M51.7 173.6h-1.6c-.2 0-.4.2-.4.4v1.1c-1.2.5-1.9 1.6-1.9 2.9l-.2 3.1s-.1 1 .7 1.5c.2.1.4.2.7.2.3 0 .6-.1.8-.2 1.4-.5 3.1-1.9 3.2-1.9.4-.3.7-.7.9-1.1h.3c.2.4.5.8.9 1.1.1.1 1.8 1.4 3.2 1.9.2.1.5.2.8.2.2 0 .4 0 .7-.2.8-.4.7-1.4.7-1.5l-.2-3.1v-.3c-.1-1.1-.9-2.1-1.9-2.5V174c0-.2-.2-.4-.4-.4h-1.6c-.2 0-.4.2-.4.4s.2.4.4.4h1.2v1c.9.3 1.5 1.1 1.6 2v.3c0 .8-.4 1.6-1.1 2-.2.1-.2.3-.1.5.1.1.2.2.3.2.1 0 .1 0 .2-.1.3-.2.6-.5.9-.8l.1 1.2s0 .5-.3.7c-.2.1-.4.1-.8-.1s-.9-.4-1.3-.7c.1-.1.2-.2.2-.3 0-.2-.2-.4-.4-.4-1 0-1.9-.6-2.2-1.5-.1-.1-.2-.2-.3-.2h-.8c-.2 0-.3.1-.3.2-.4.9-1.3 1.5-2.2 1.5-.2 0-.4.2-.4.4 0 .1.1.2.2.3-.4.3-.9.5-1.3.7-.4.2-.6.2-.8.1-.3-.2-.3-.7-.3-.7l.1-1.2c.2.3.5.6.9.8.1 0 .1.1.2.1s.2-.1.3-.2c.1-.2.1-.4-.1-.5-.7-.4-1.2-1.2-1.2-2.1v-.3c.1-.9.8-1.7 1.6-2h.1v-1h1.2c.2 0 .4-.2.4-.4s0-.3-.3-.3zM131.7 175.8s-.1-.1 0 0c-.1-.1-.1-.1 0 0l-2.9-3.4c0-.1-.1-.1-.1-.1h-.2l-4.3-.8h-.1c-.1 0-.1 0-.1.1l-.1.1-2.7 4.6-1.8-.6v-5.4-.1l-.1-.1h-.1l-4.1-1.4c-.1 0-.1-.1-.2-.1s-.1 0-.2.1l-4.1 1.4h-.1c-.1.1-.1.2-.1.3v5.5c0 .1.1.3.2.3l2 .7v5.3c0 .1.1.3.2.3l4.1 1.4h.2l4.1-1.4c.1 0 .2-.2.2-.3v-4.9l2.5 2.9c0 .1.1.1.1.1.1 0 .1.1.2.1l4.3.8h.1c.1 0 .2-.1.3-.2l2.7-4.8v-.1c.1-.2.1-.3.1-.3zm-1.2-.4l-3.4-.6-2.2-2.6 3.4.6 2.2 2.6zm-13.5 2.3l-1.3-.5 3.2-1.1 1.3.5-3.2 1.1zm-1.9-1v-4.8l3.6-1.3v4.8l-3.6 1.3zm-.3-7.6l3.2 1.1-3.3 1.2-3.2-1.1 3.3-1.2zm-3.9 1.6l3.6 1.3v4.8l-3.6-1.3v-4.8zm2.2 6.3l3.5 1.2v4.8l-3.5-1.2V177zm7.7 4.9l-3.5 1.2v-4.8l3.5-1.2v4.8zm3.4-9.6l2.4 2.8-2.4 4.2-2.4-2.8 2.4-4.2zm4.3 8l-3.7-.7 2.4-4.2 3.7.7-2.4 4.2zM95 47.5c-.1 0-.1-.1 0 0l-2.9-3.4c0-.1-.1-.1-.1-.1h-.2l-4.3-.8h-.1c-.1 0-.1 0-.1.1l-.1.1-2.7 4.6-1.8-.6V42v-.1l-.1-.1h-.1l-4.1-1.4c-.1 0-.1-.1-.2-.1s-.1 0-.2.1l-4.1 1.4s-.1 0-.1.1c-.1.1-.1.2-.1.3v5.5c0 .1.1.3.2.3l2 .7V54c0 .1.1.3.2.3l4.1 1.4h.2l4.1-1.4c.1 0 .2-.2.2-.3v-4.9l2.5 2.9c0 .1.1.1.1.1.1 0 .1.1.2.1l4.3.8h.1c.1 0 .2-.1.3-.2l2.7-4.8v-.1c.1-.3.1-.3.1-.4zm-1.1-.3l-3.4-.6-2.2-2.6 3.4.6 2.2 2.6zm-13.6 2.2L79 49l3.2-1.1 1.3.5-3.2 1zm-1.9-.9v-4.8l3.6-1.3v4.8l-3.6 1.3zm-.3-7.7l3.2 1.1-3.3 1.2-3.2-1.1 3.3-1.2zm-3.9 1.6l3.6 1.3v4.8l-3.6-1.3v-4.8zm2.2 6.4l3.5 1.2v4.8l-3.5-1.2v-4.8zm7.8 4.8l-3.5 1.2V50l3.5-1.2v4.8zm3.3-9.6l2.4 2.8-2.4 4.2-2.4-2.8 2.4-4.2zm4.3 8.1l-3.7-.7 2.4-4.2 3.7.7-2.4 4.2zM155.1 182.6c2.1 1.2 4.7.5 5.9-1.6 1.2-2.1.5-4.7-1.6-5.9-.3-.2-.6-.3-1-.4.1-.4.1-.7.1-1.1 0-2.4-1.9-4.3-4.3-4.3s-4.3 1.9-4.3 4.3c0 .4 0 .7.1 1.1-.3.1-.7.2-1 .4-2.1 1.2-2.8 3.9-1.6 5.9 1.2 2.1 3.9 2.8 5.9 1.6.3-.2.6-.4.8-.6.4.1.7.4 1 .6zm-1.5-4.8c.2 0 .5.1.7.1h.6c.3 1.1 0 2.4-.7 3.3-.7-1-.9-2.3-.6-3.4zm1.1-.5h-.9c.1-.1.1-.3.2-.4.1-.1.2-.3.3-.4.1.1.2.3.3.4 0 .1.1.2.1.4zm-.1-1.2c.8-.8 2-1.2 3.2-1-.5 1.1-1.4 1.9-2.5 2.2l-.3-.6c-.1-.3-.2-.5-.4-.6zm-1.1.5c-.1.2-.2.4-.3.5-1.1-.3-2-1.1-2.5-2.2 1.1-.1 2.3.3 3.1 1.1 0 .2-.2.4-.3.6zm5.7-1.1c1.8 1.1 2.4 3.4 1.4 5.2s-3.4 2.4-5.2 1.4c-.3-.2-.5-.4-.8-.6.9-1.1 1.2-2.5.8-3.8 1.3-.4 2.4-1.3 2.9-2.6.3.1.6.2.9.4zm-4.9-5.8c2.1 0 3.8 1.7 3.8 3.8 0 .3 0 .7-.1 1-1.3-.2-2.7.2-3.7 1.2-1-.9-2.3-1.4-3.7-1.2-.1-.3-.1-.6-.1-1 0-2.1 1.7-3.8 3.8-3.8zm-1.2 12.4c-1.8 1.1-4.2.4-5.2-1.4-1.1-1.8-.4-4.2 1.4-5.2.3-.2.6-.3.9-.4.5 1.2 1.5 2.2 2.8 2.6-.4 1.3 0 2.8.8 3.8-.1.2-.4.4-.7.6zM54.1 233.3c-2.5 0-4.5 2-4.5 4.5 0 .8.2 1.5.6 2.2 1.1 1.9 1.3 2.9 1.4 3.8.1.5.2.8.4 1v1.6c0 .4.4.8.8.8h2.3c.5 0 .8-.4.8-.8v-1.6c.3-.2.4-.6.4-1 .1-.9.4-1.9 1.4-3.8.4-.7.6-1.5.6-2.2.2-2.5-1.8-4.5-4.2-4.5zm1.4 13.1c0 .1-.1.3-.3.3h-2.3c-.2 0-.3-.1-.3-.3V245H55.6v1.4zm1.9-6.7c-1 1.8-1.3 2.9-1.5 4-.1.8-.3.8-.7.8h-.9v-1.4l1.1-1.9c.1-.1 0-.3-.1-.4-.1-.1-.3 0-.4.1l-.9 1.5-.9-1.5c-.1-.1-.2-.2-.4-.1-.1.1-.2.2-.1.4l1.1 1.9v1.4h-.9c-.4 0-.6 0-.7-.8-.2-1.1-.5-2.2-1.5-4-.3-.6-.5-1.3-.5-2 0-2.2 1.8-3.9 3.9-3.9s3.9 1.8 3.9 3.9c.1.8-.1 1.4-.5 2zM153.1 86.9h2.3c.5 0 .8-.4.8-.8v-1.6c.3-.2.4-.6.4-1 .1-.9.4-1.9 1.4-3.8.4-.7.6-1.5.6-2.2 0-2.5-2-4.5-4.5-4.5s-4.5 2-4.5 4.5c0 .8.2 1.5.6 2.2 1.1 1.9 1.3 2.9 1.4 3.8.1.5.2.8.4 1v1.6c.3.4.7.8 1.1.8zm2.6-.8c0 .1-.1.3-.3.3h-2.3c-.2 0-.3-.1-.3-.3v-1.4H155.8v1.4zm-4.8-6.7c-.3-.6-.5-1.3-.5-2 0-2.2 1.8-3.9 3.9-3.9 2.2 0 3.9 1.8 3.9 3.9 0 .7-.2 1.3-.5 2-1 1.8-1.3 2.9-1.5 4-.1.8-.3.8-.7.8h-.9v-1.4l1.1-1.9c.1-.1 0-.3-.1-.4-.1-.1-.3 0-.4.1l-.9 1.5-.9-1.5c-.1-.1-.2-.2-.4-.1-.1.1-.2.2-.1.4l1.1 1.9v1.4h-.9c-.4 0-.6 0-.7-.8-.2-1.1-.5-2.2-1.5-4zM54.1 201.2c-3.8 0-7 3.1-7 7 0 3.8 3.1 7 7 7s7-3.1 7-7c-.1-3.8-3.2-7-7-7zm-.9.6c.3 0 .6-.1.9-.1.3 0 .6 0 .9.1l.3 1-1.2.9-1.2-.9.3-1zm2.1 6l-.5 1.4h-1.5l-.5-1.4 1.2-.9 1.3.9zm-2.7-5.9l-.3.9c0 .1 0 .2.1.3l1.4 1v2.2l-1.3.9-2.1-.7-.5-1.7c0-.1-.1-.2-.3-.2h-1c.9-1.2 2.3-2.3 4-2.7zm-4.3 3.5h1.1l.5 1.4-1.2.9-.9-.7c0-.6.2-1.1.5-1.6zm.9 7c-1-1.1-1.6-2.6-1.6-4.2v-.6l.8.6s.1.1.2.1.1 0 .2-.1l1.4-1 2.1.7.5 1.5-1.3 1.8h-1.7c-.1 0-.2.1-.3.2l-.3 1zm.4.4l.4-1.1h1.5l.5 1.4-1 .7c-.5-.2-1-.6-1.4-1zm4.5 1.8c-.9 0-1.8-.2-2.6-.5l.9-.7c.1-.1.1-.2.1-.3l-.5-1.7 1.3-1.8h1.6l1.3 1.8-.5 1.7c0 .1 0 .2.1.3l.9.7c-.9.4-1.7.5-2.6.5zm3.1-.8l-1-.7.5-1.4h1.5l.4 1.1c-.5.4-1 .8-1.4 1zm3.3-5.6c0 1.6-.6 3.1-1.6 4.2l-.3-1c0-.1-.1-.2-.3-.2h-1.7l-1.3-1.8.5-1.5 2.1-.7 1.4 1s.1.1.2.1.1 0 .2-.1l.8-.6v.6zm-.1-1.2l-.9.7-1.2-.9.5-1.4h1.1c.2.5.4 1 .5 1.6zm-1.9-2.2c-.1 0-.2.1-.3.2l-.5 1.7-2.1.7-1.3-.9v-2.2l1.4-1c.1-.1.1-.2.1-.3l-.3-.9c1.7.4 3.1 1.5 4 2.9h-1zM123.7 209.9c-.2 0-.4.1-.6.2l-1.3-1.3c.1-.1.4-.5.4-.9 0-.3-.1-.5-.3-.8l-.2-.2c-.1-.1-.3-.1-.4 0-.1.1-.1.3 0 .4l.2.2c.1.1.2.2.2.4s-.1.4-.2.5l-1.7-1.7c-.1-.1-.3-.1-.4 0-.1.1-.1.3 0 .4l2.6 2.6c-.1.1-.5.4-.8.2l-.7-.7c-.1-.1-.3-.1-.4 0-.1.1-.1.3 0 .4l.8.7c.2.2.4.2.6.2.3 0 .7-.2.9-.4l.5.5c-.3.4-.2 1 .2 1.3.2.2.5.3.8.3s.6-.1.8-.3c.4-.4.4-1.1 0-1.5-.4-.4-.7-.5-1-.5zm.4 1.5c-.2.2-.6.2-.8 0-.1-.1-.2-.2-.2-.4s.1-.3.2-.4.2-.2.4-.2c.1 0 .3.1.4.2.2.2.2.6 0 .8z"></path><path class="st3" d="M121 203.4c-.2-.2-.4-.2-.6-.2-.2 0-.4.1-.6.2l-.3.3-2.4-2.4c-.1-.1-.3-.1-.4 0L114 204c-.1.1-.1.1-.1.2s0 .1.1.2l2.4 2.4-.3.3c-.2.2-.2.4-.2.6 0 .2.1.4.2.6l6.7 6.7c.2.2.4.2.6.2s.4-.1.6-.2l.9-.9.2.2c.2.2.6.4.9.4.3 0 .7-.1.9-.4.5-.5.5-1.3 0-1.8l-.2-.2.9-.9c.3-.3.3-.8 0-1.1l-6.6-6.9zm-6.4.8l2.4-2.4 2.2 2.2-2.4 2.4-2.2-2.2zm12 9.6c-.1.1-.3.2-.5.2s-.4-.1-.5-.2l-.2-.2 1.1-1.1.2.2c.2.3.2.8-.1 1.1zm.7-2.9l-3.7 3.7c-.1.1-.3.1-.4 0l-6.7-6.7c-.1-.1-.1-.1-.1-.2s0-.1.1-.2l3.7-3.7c.1-.1.1-.1.2-.1s.1 0 .2.1l6.7 6.7c.1.1.1.3 0 .4z"></path><path transform="rotate(-45.009 117.4647641 203.5976752)" class="st3" d="M117.2 203.4h.6v.4h-.6z"></path><path transform="rotate(-44.992 116.3625457 204.7338803)" class="st3" d="M116 204.5h.6v.4h-.6z"></path><path class="st3" d="M149.6 207.8h.7v.7h-.7zM155.3 207.8h.7v.7h-.7zM156.8 207.8h.7v.7h-.7zM152.8 203.9h.7v.7h-.7zM151.4 203.9h.7v.7h-.7zM149.9 203.9h.7v.7h-.7zM151 208.2c0 1 .8 1.8 1.8 1.8s1.8-.8 1.8-1.8-.8-1.8-1.8-1.8-1.8.8-1.8 1.8zm2.9 0c0 .6-.5 1.1-1.1 1.1-.6 0-1.1-.5-1.1-1.1s.5-1.1 1.1-1.1c.6 0 1.1.5 1.1 1.1zM161.5 206.8c-.7 0-1.2.5-1.4 1.1h-1.9v.7h1.9c.2.6.7 1.1 1.4 1.1.8 0 1.4-.6 1.4-1.4s-.6-1.5-1.4-1.5zm0 2.1c-.4 0-.7-.3-.7-.7 0-.4.3-.7.7-.7s.7.3.7.7c0 .4-.3.7-.7.7z"></path><path class="st3" d="M161.5 210.4c-.7 0-1.2.5-1.4 1.1h-1.3l-1.1-1.1h-8.9c-.1-.5-.5-.9-1-1v-2.2c.5-.1.9-.5 1-1h6.6v-.7h-7.2v.4c0 .7-.5.7-.7.7h-.5v3.6h.4c.2 0 .7.1.7.7v.4h9.3l1.1 1.1h1.6c.2.6.7 1.1 1.4 1.1.8 0 1.4-.6 1.4-1.4 0-1.1-.6-1.7-1.4-1.7zm0 2.2c-.4 0-.7-.3-.7-.7s.3-.7.7-.7.7.3.7.7-.3.7-.7.7z"></path><path class="st3" d="M158.2 213.3c-.3 0-.5.1-.7.2l-1.7-1.7h-1.2v.7h.9l1.4 1.4c-.1.2-.2.5-.2.7 0 .8.6 1.4 1.4 1.4.8 0 1.4-.6 1.4-1.4s-.5-1.3-1.3-1.3zm0 2.1c-.4 0-.7-.3-.7-.7 0-.4.3-.7.7-.7s.7.3.7.7c.1.4-.3.7-.7.7zM160.1 204.2h-1.6l-1.1 1.1h-1.3v.7h1.6l1.1-1.1h1.3c.2.6.7 1.1 1.4 1.1.8 0 1.4-.6 1.4-1.4s-.6-1.4-1.4-1.4c-.7-.1-1.2.4-1.4 1zm2.1.4c0 .4-.3.7-.7.7s-.7-.3-.7-.7c0-.4.3-.7.7-.7s.7.3.7.7zM158.2 203.1c.8 0 1.4-.6 1.4-1.4s-.6-1.4-1.4-1.4c-.8 0-1.4.6-1.4 1.4 0 .3.1.5.2.7l-1.4 1.4h-1.3v.7h1.6l1.7-1.7c.1.3.4.3.6.3zm0-2.1c.4 0 .7.3.7.7s-.3.7-.7.7-.7-.3-.7-.7.3-.7.7-.7zM151 211.8h-4.7v-7.2h2.9v-.7h-3.6v8.7h5.4zM151.7 211.8h.7v.7h-.7zM153.2 211.8h.7v.7h-.7z"></path><path transform="rotate(-45 12.760619 108.5280516)" class="st3" d="M12.4 108.3h.6v.4h-.6z"></path><path class="st3" d="M12.4 111.5c0 .2.1.4.2.6l6.7 6.7c.2.2.4.2.6.2s.4-.1.6-.2l.9-.9.2.2c.2.2.6.4.9.4.3 0 .7-.1.9-.4.5-.5.5-1.3 0-1.8l-.2-.2.9-.9c.3-.3.3-.8 0-1.1l-6.7-6.7c-.2-.2-.4-.2-.6-.2-.2 0-.4.1-.6.2l-.3.3-2.4-2.4c-.1-.1-.3-.1-.4 0l-2.7 2.7c-.1.1-.1.1-.1.2s0 .1.1.2l2.4 2.4-.3.3c-.1 0-.1.2-.1.4zm10.6 6.1c-.1.1-.3.2-.5.2s-.4-.1-.5-.2l-.2-.2 1.1-1.1.2.2c.2.3.2.8-.1 1.1zm-6.4-10c.1-.1.1-.1.2-.1s.1 0 .2.1l6.7 6.7c.1.1.1.3 0 .4l-3.7 3.7c-.1.1-.3.1-.4 0l-6.7-6.7c-.1-.1-.1-.1-.1-.2s0-.1.1-.2l3.7-3.7zm-5.6.4l2.4-2.4 2.2 2.2-2.4 2.4L11 108z"></path><path transform="rotate(-45.017 13.8835845 107.4095555)" class="st3" d="M13.6 107.2h.6v.4h-.6z"></path><path class="st3" d="M18.3 113.4c-.1.1-.5.4-.8.2l-.7-.7c-.1-.1-.3-.1-.4 0-.1.1-.1.3 0 .4l.8.7c.2.2.4.2.6.2.3 0 .7-.2.9-.4l.5.5c-.3.4-.2 1 .2 1.3.2.2.5.3.8.3s.6-.1.8-.3c.4-.4.4-1.1 0-1.5-.2-.2-.5-.3-.8-.3-.2 0-.4.1-.6.2l-1.3-1.3c.1-.1.4-.5.4-.9 0-.3-.1-.5-.3-.8l-.2-.2c-.1-.1-.3-.1-.4 0-.1.1-.1.3 0 .4l.2.2c.1.1.2.2.2.4s-.1.4-.2.5l-1.7-1.7c-.1-.1-.3-.1-.4 0-.1.1-.1.3 0 .4l2.4 2.4zm1.5 1c.1-.1.2-.2.4-.2s.3.1.4.2c.2.2.2.6 0 .8-.2.2-.6.2-.8 0-.1-.1-.2-.2-.2-.4s0-.3.2-.4zM49.3 111.6h.7v.7h-.7zM55.1 111.6h.7v.7h-.7zM56.6 111.6h.7v.7h-.7zM52.6 107.7h.7v.7h-.7zM51.2 107.7h.7v.7h-.7zM49.7 107.7h.7v.7h-.7zM50.8 112c0 1 .8 1.8 1.8 1.8s1.8-.8 1.8-1.8-.8-1.8-1.8-1.8-1.8.8-1.8 1.8zm2.9 0c0 .6-.5 1.1-1.1 1.1-.6 0-1.1-.5-1.1-1.1s.5-1.1 1.1-1.1c.6 0 1.1.5 1.1 1.1zM61.3 110.6c-.7 0-1.2.5-1.4 1.1H58v.7h1.9c.2.6.7 1.1 1.4 1.1.8 0 1.4-.6 1.4-1.4s-.6-1.5-1.4-1.5zm0 2.1c-.4 0-.7-.3-.7-.7 0-.4.3-.7.7-.7s.7.3.7.7c0 .4-.3.7-.7.7z"></path><path class="st3" d="M61.3 114.2c-.7 0-1.2.5-1.4 1.1h-1.3l-1.1-1.1h-8.9c-.1-.5-.5-.9-1-1V111c.5-.1.9-.5 1-1h6.6v-.7H48v.4c0 .7-.5.7-.7.7h-.4v3.6h.4c.2 0 .7.1.7.7v.4h9.3l1.1 1.1H60c.2.6.7 1.1 1.4 1.1.8 0 1.4-.6 1.4-1.4-.1-1.1-.7-1.7-1.5-1.7zm0 2.2c-.4 0-.7-.3-.7-.7s.3-.7.7-.7.7.3.7.7-.3.7-.7.7z"></path><path class="st3" d="M58 120c.8 0 1.4-.6 1.4-1.4s-.6-1.4-1.4-1.4c-.3 0-.5.1-.7.2l-1.7-1.7h-1.2v.7h.9l1.4 1.4c-.1.2-.2.5-.2.7.1.8.7 1.5 1.5 1.5zm0-2.2c.4 0 .7.3.7.7 0 .4-.3.7-.7.7s-.7-.3-.7-.7c0-.4.3-.7.7-.7zM61.3 106.9c-.7 0-1.2.5-1.4 1.1h-1.6l-1.1 1.1h-1.3v.7h1.6l1.1-1.1h1.3c.2.6.7 1.1 1.4 1.1.8 0 1.4-.6 1.4-1.4s-.6-1.5-1.4-1.5zm0 2.2c-.4 0-.7-.3-.7-.7 0-.4.3-.7.7-.7s.7.3.7.7c0 .4-.3.7-.7.7zM58 106.9c.8 0 1.4-.6 1.4-1.4 0-.8-.6-1.4-1.4-1.4-.8 0-1.4.6-1.4 1.4 0 .3.1.5.2.7l-1.4 1.4h-1.3v.7h1.6l1.7-1.7c.1.3.4.3.6.3zm0-2.1c.4 0 .7.3.7.7s-.3.7-.7.7-.7-.3-.7-.7.3-.7.7-.7zM50.8 115.6h-4.7v-7.2H49v-.7h-3.6v8.7h5.4zM51.5 115.6h.7v.7h-.7zM53 115.6h.7v.7H53zM83.3 113v1.1l.7.5h.7l.7-.5V113h1.1l.5-.7v-.7l-.5-.7h-1.1v-1.1l-.7-.5H84l-.7.5v1.1h-1.1l-.5.7v.7l.5.7h1.1zm-1-1.1l.2-.3h1.4v-1.4l.3-.2h.3l.3.2v1.4h1.4l.2.3v.3l-.2.3h-1.4v1.4l-.3.2h-.3l-.3-.2v-1.4h-1.4l-.2-.3v-.3z"></path><path class="st3" d="M77.8 111l-1 .6v.8l1 .6h.7l.3 1-.6.4-.5 1 .4.7h1.1l.6-.4.7.7-.4.6v1.1l.7.4 1-.5.4-.6 1 .3v.7l.6 1h.8l.6-1v-.7l1-.3.4.6 1 .5.7-.4V117l-.4-.6.7-.7.6.4h1.1l.4-.7-.5-1-.6-.4.3-1h.7l1-.6v-.8l-1-.6H90l-.3-1 .6-.4.5-1-.4-.7h-1.1l-.6.4-.7-.7.4-.6v-1.1l-.7-.4-1 .5-.4.6-1-.3v-.7l-.6-1h-.8l-.6 1v.7l-1 .3-.4-.6-1-.5-.7.4v1.1l.4.6-.7.7-.6-.4h-1.1l-.4.7.5 1 .6.4-.3 1h-.8zm.8-1.8l-.3-.6.1-.2h.6l.9.5 1.3-1.3-.5-.9v-.6l.2-.1.6.3.5.9 1.8-.5v-1l.3-.5h.2l.3.5v1l1.8.5.5-.9.6-.3.2.1v.6l-.5.9 1.3 1.3.9-.5h.6l.1.2-.3.6-.9.5.5 1.8h1l.5.3v.2l-.5.3h-1l-.5 1.8.9.5.3.6-.1.2h-.6l-.9-.5-1.3 1.3.5.9v.6l-.2.1-.6-.3-.5-.9-1.8.5v1l-.3.5h-.2l-.3-.5v-1l-1.8-.5-.5.9-.6.3-.2-.1v-.6l.5-.9-1.3-1.3-.9.5h-.6l-.1-.2.3-.6.9-.5-.5-1.8h-1l-.5-.3v-.2l.5-.3h1l.5-1.8-.9-.5zM125.4 148.6l.1-.9-.1-.1.5-.5-.4-.4-.5.5-.1-.1-.9-.1-.1.1-.3-.4.1-.1.1-.9-.6-.7-.9-.1-.1.1-.3-.4.1-.1.1-.9-.1-.1.5-.5-.4-.4-.5.5-.1-.1-.9-.1-.1.1-.3-.4.1-.1.1-.9-.6-.7-.9-.1-.1.1-.3-.4.1-.1.1-.9-.1-.1.5-.5-.4-.4-.5.5-.1-.1-.9-.1-.1.1-.4-.5-.4.4.4.5-.1.1-.1.9.1.1-.5.5.4.4.5-.5.1.1.9.1.1-.1.3.4-.1.1-.1.9.6.7.9.1.1-.1.3.4-.1.1-.1.9.1.1-.5.5.4.4.5-.5.1.1.9.1.1-.1.3.4-.1.1-.1.9.6.7.9.1.1-.1.3.4-.1.1-.1.9.1.1-.5.5.4.4.5-.5.1.1.9.1.2-.2.4.5.4-.4-.4-.5zm-8.1-8l-.3-.3v-.4l.3-.3h.4l.3.3v.4l-.3.3h-.4zm1.7 2l-.3-.3v-.4l.3-.3h.4l.3.3v.4l-.3.3h-.4zm1.7 2l-.3-.3v-.4l.3-.3h.4l.3.3v.4l-.3.3h-.4zm1.7 2l-.3-.3v-.4l.3-.3h.4l.3.3v.4l-.3.3h-.4zm2.1 2h-.4l-.3-.3v-.4l.3-.3h.4l.3.3v.4l-.3.3z"></path><path class="st3" d="M127.3 147l.6-.5c.2-.1.2-.4 0-.6l-.8-1c-.1-.2-.4-.2-.6 0l-.6.5-2-2.4.6-.5c.2-.1.2-.4 0-.6l-.8-1c-.1-.1-.2-.1-.3-.1-.1 0-.2 0-.3.1l-.6.5-2-2.4.6-.5c.2-.1.2-.4 0-.6l-.8-1c-.1-.2-.4-.2-.6 0l-.6.5-1.3-1.5-1.4 1.2-.5-.6c-.1-.2-.4-.2-.6 0l-1 .8c-.1.1-.1.2-.1.3 0 .1 0 .2.1.3l.5.6-1.4 1.2 1.3 1.5-.7.6c-.2.1-.2.4 0 .6l.8 1c.1.1.2.1.3.1.1 0 .2 0 .3-.1l.7-.6 2 2.4-.7.6c-.2.1-.2.4 0 .6l.8 1c.1.1.2.1.3.1.1 0 .2 0 .3-.1l.7-.6 2 2.4-.7.6c-.2.1-.2.4 0 .6l.8 1c.1.1.2.1.3.1.1 0 .2 0 .3-.1l.7-.6 1.2 1.5 1.4-1.2.5.6c.1.1.2.1.3.1.1 0 .2 0 .3-.1l1-.8c.1-.1.1-.2.1-.3 0-.1 0-.2-.1-.3l-.5-.6 1.4-1.2-1.2-1.5zm-.5-1.7l.7.8-.5.5-.7-.8.5-.5zm-3.4-4l.7.8-.5.5-.7-.8.5-.5zm-3.4-4l.7.8-.5.5-.7-.8.5-.5zm-5.2.3l.8-.7.5.5-.8.7-.5-.5zm.3 5.3l-.7-.8.6-.5.7.8-.6.5zm3.4 4l-.7-.8.6-.5.7.8-.6.5zm3.4 4l-.7-.8.6-.5.7.8-.6.5zm-7.8-11.1l3.7-3.1 10 11.8-3.7 3.1-10-11.8zm13.1 10.8l-.8.7-.5-.5.8-.7.5.5zM86.6 175.7c.3-.1.5-.2.7-.5.2-.2.2-.5.1-.8-.1-.3-.2-.5-.5-.7-.2-.2-.5-.2-.8-.1-1.5.3-2.9 1.3-3.7 2.6-.8 1.3-1.1 2.9-.8 4.5.1.5.6.8 1.1.8h.2c.6-.1.9-.7.8-1.3-.2-1 0-2 .5-2.8.6-.9 1.5-1.5 2.4-1.7zm-2.9 1.3c-.6 1-.8 2.2-.6 3.3 0 .2-.1.4-.3.5-.2 0-.4-.1-.5-.3-.3-1.4-.1-2.8.7-3.9.7-1.2 1.9-2 3.3-2.3.1 0 .2 0 .3.1l.2.2c0 .1 0 .2-.1.3-.1.1-.1.2-.2.2-1.2.2-2.1.9-2.8 1.9z"></path><path class="st3" d="M85.9 172.2c.3-.1.5-.2.7-.5.2-.3.2-.6.1-.8-.1-.3-.2-.5-.5-.7-.3-.2-.6-.2-.8-.1-2.5.6-4.6 2-6 4.2-1.4 2.1-1.8 4.7-1.2 7.2.1.3.2.5.5.7.2.1.4.2.6.2h.2c.3-.1.5-.2.7-.5.2-.3.2-.6.1-.8-.4-1.9-.1-3.9.9-5.5 1.1-1.8 2.8-3 4.7-3.4zm-6.2 8.9c0 .1 0 .2-.1.3-.1.1-.2.2-.3.2-.1 0-.2 0-.3-.1-.1-.1-.2-.2-.2-.3-.5-2.3-.1-4.7 1.1-6.7 1.3-2 3.2-3.4 5.5-3.9h.1c.1 0 .2 0 .2.1.1.1.2.2.2.3 0 .1 0 .2-.1.3-.1.1-.2.2-.3.2-2.1.5-3.9 1.7-5 3.5-.9 1.9-1.3 4-.8 6.1zM87.1 181.8c.4.2.8.4 1.2.4.2 0 .3 0 .5-.1.6-.1 1.1-.5 1.4-1 .7-1.1.4-2.5-.7-3.2-1.1-.7-2.5-.4-3.2.7-.3.5-.4 1.1-.3 1.7.2.7.6 1.2 1.1 1.5zM87 179c.3-.5.8-.7 1.4-.7.3 0 .6.1.9.2.7.5 1 1.5.5 2.2-.2.4-.6.6-1 .7-.4.1-.8 0-1.2-.2-.4-.2-.6-.6-.7-1-.2-.4-.2-.8.1-1.2zM14.4 51.1c.2 0 .4-.2.4-.4v-.6h.6c.2 0 .4-.2.4-.4s-.2-.4-.4-.4h-.6v-.6c0-.2-.2-.4-.4-.4s-.4.4-.4.6v.6h-.6c-.2 0-.4.2-.4.4s.2.4.4.4h.6v.6c0 .1.1.2.4.2zM21.7 49.8c0-.2-.2-.4-.4-.4s-.4.2-.4.4.2.4.4.4c.3 0 .4-.2.4-.4zM17.4 44.2c.2 0 .5-.2.5-.5 0-.2-.2-.5-.5-.5-.2 0-.5.2-.5.5s.2.5.5.5zM17.4 42.2c.2 0 .5-.2.5-.5 0-.2-.2-.5-.5-.5-.2 0-.5.2-.5.5s.2.5.5.5zM14.7 46.9c0 .2.2.4.4.4h4.5c.2 0 .4-.2.4-.4s-.2-.4-.4-.4h-4.5c-.2.1-.4.2-.4.4zM19.5 49.4c-.2 0-.4.2-.4.4s.2.4.4.4.4-.2.4-.4-.1-.4-.4-.4zM20.4 51.1c.2 0 .4-.2.4-.4s-.2-.4-.4-.4-.4.2-.4.4.2.4.4.4zM20.4 49.3c.2 0 .4-.2.4-.4s-.2-.4-.4-.4-.4.2-.4.4.2.4.4.4zM17.4 46.1c.2 0 .5-.2.5-.5 0-.2-.2-.5-.5-.5-.2 0-.5.2-.5.5s.2.5.5.5z"></path><path class="st3" d="M15.1 45.4h-1.6c-.2 0-.4.2-.4.4v1.1c-1.2.5-1.9 1.6-1.9 2.9l-.2 3s-.1 1 .7 1.5c.2.1.4.2.7.2.3 0 .6-.1.8-.2 1.4-.5 3.1-1.9 3.2-1.9.4-.3.7-.7.9-1.1h.3c.2.4.5.8.9 1.1.1.1 1.8 1.4 3.2 1.9.2.1.5.2.8.2.2 0 .4 0 .7-.2.8-.4.7-1.4.7-1.5l-.2-3.1v-.3c-.1-1.1-.9-2.1-1.9-2.5v-1.1c0-.2-.2-.4-.4-.4h-1.6c-.2 0-.4.2-.4.4s.2.4.4.4H21v1c.9.3 1.5 1.1 1.6 2v.3c0 .8-.4 1.6-1.1 2-.2.1-.2.3-.1.5.1.1.2.2.3.2.1 0 .1 0 .2-.1.3-.2.6-.5.9-.8l.1 1.2s0 .5-.3.7c-.2.1-.4.1-.8-.1s-.9-.4-1.3-.7c.1-.1.2-.2.2-.3 0-.2-.2-.4-.4-.4-1 0-1.9-.6-2.2-1.5-.1-.1-.2-.2-.3-.2H17c-.2 0-.3.1-.3.2-.4.9-1.3 1.5-2.2 1.5-.2 0-.4.2-.4.4 0 .1.1.2.2.3-.4.3-.9.5-1.3.7-.4.2-.6.2-.8.1-.3-.2-.3-.7-.3-.7l.1-1.2c.2.3.5.6.9.8.1 0 .1.1.2.1s.2-.1.3-.2c.1-.2.1-.4-.1-.5-.7-.4-1.2-1.2-1.2-2.1v-.3c.1-.9.8-1.7 1.6-2h.1v-1H15c.2 0 .4-.2.4-.4s-.1-.3-.3-.3zM56.4 47.4c.3-.1.5-.2.7-.5.2-.2.2-.5.1-.8-.1-.3-.2-.5-.5-.7-.2-.2-.5-.2-.8-.1-1.5.3-2.8 1.3-3.7 2.6-.8 1.3-1.1 2.9-.8 4.5.1.5.6.8 1.1.8h.2c.6-.1.9-.7.8-1.3-.2-1 0-2 .5-2.8.6-.9 1.4-1.5 2.4-1.7zm-2.9 1.3c-.6 1-.8 2.2-.6 3.3 0 .2-.1.4-.3.5-.2 0-.4-.1-.5-.3-.3-1.4-.1-2.8.7-3.9.7-1.2 1.9-2 3.3-2.3.1 0 .2 0 .3.1l.2.2c0 .1 0 .2-.1.3-.1.1-.1.2-.2.2-1.2.2-2.2.9-2.8 1.9z"></path><path class="st3" d="M56 41.9c-.3-.2-.6-.2-.8-.1-2.5.6-4.6 2-6 4.2-1.4 2.1-1.8 4.7-1.2 7.2.1.3.2.5.5.7.1.1.3.1.5.1h.2c.3-.1.5-.2.7-.5.2-.3.2-.6.1-.8-.4-1.9-.1-3.9.9-5.5s2.7-2.8 4.6-3.2c.3-.1.5-.2.7-.5.2-.3.2-.6.1-.8.1-.4-.1-.6-.3-.8zm-.3 1.2c-.1.1-.2.2-.3.2-2.1.5-3.9 1.7-5 3.5s-1.5 3.9-1 6c0 .1 0 .2-.1.3-.1.1-.2.2-.3.2-.1 0-.2 0-.3-.1-.1-.1-.2-.2-.2-.3-.5-2.3-.1-4.7 1.1-6.7 1.3-2 3.2-3.4 5.5-3.9h.1c.1 0 .2 0 .2.1.1.1.2.2.2.3.2.2.2.3.1.4zM60 52.8c.7-1.1.4-2.5-.7-3.2-1.1-.7-2.5-.4-3.2.7-.3.5-.4 1.1-.3 1.7.1.6.5 1.1 1 1.4.4.2.8.4 1.2.4.2 0 .3 0 .5-.1.7 0 1.2-.3 1.5-.9zm-.5-.3c-.2.4-.6.6-1 .7-.4.1-.8 0-1.2-.2-.4-.2-.6-.6-.7-1-.1-.4 0-.8.2-1.2.3-.5.8-.7 1.4-.7.3 0 .6.1.9.2.6.4.8 1.4.4 2.2zM26.8 202.5c-.1-.2-.4-.3-.7-.2l-.9.4-1-1.9-2 1-.5-.9c-.1-.2-.4-.3-.7-.2l-1.3.7c-.2.1-.3.4-.2.7l.5.9-3.2 1.6-.5-.9c-.1-.1-.2-.2-.3-.2h-.4l-1.3.7c-.2.1-.3.4-.2.7l.5.9-3.2 1.6-.5-.9c-.1-.2-.4-.3-.7-.2L9 207c-.1.1-.2.2-.2.3v.4l.5.9-2 1 1 1.9-.9.4c-.2.1-.3.4-.2.7l.7 1.3c.1.1.2.2.3.2h.1c.1 0 .2 0 .2-.1l.9-.4 1 1.9 2-1 .4.9c.1.1.2.2.3.2h.1c.1 0 .2 0 .2-.1l1.3-.7c.2-.1.3-.4.2-.7l-.4-.9 3.2-1.6.4.9c.1.1.2.2.3.2h.1c.1 0 .2 0 .2-.1l1.3-.7c.2-.1.3-.4.2-.7l-.4-.9 3.2-1.6.4.9c.1.1.2.2.3.2h.1c.1 0 .2 0 .2-.1l1.3-.7c.2-.1.3-.4.2-.6l-.4-.9 2-1-1-1.9.9-.4c.2-.1.3-.4.2-.7l-.4-1zm-6.6-.6l1.1-.5.4.8-1.1.5-.4-.8zm-5.4 2.8l1.1-.5.4.8-1.1.5-.4-.8zm-5.4 2.8l1.1-.5.4.8-1.1.5-.4-.8zm-1 6l-.5-1.1.7-.4.5 1.1-.7.4zm6 1l-1.1.5-.4-.7 1.1-.5.4.7zm5.4-2.8l-1.1.5-.4-.7 1.1-.5.4.7zm5.4-2.7l-1.1.5-.4-.7 1.1-.5.4.7zm-14.5 5.8l-2.5-4.9 15.9-8.1 2.5 4.9-15.9 8.1zm15.4-10.4l-.5-1.1.7-.4.5 1.1-.7.4z"></path><path class="st3" d="M23.6 204.5l-1-.3-.2.1-.4-.7-.6.3.4.7-.2.1-.3 1 .1.2-.4.1-.1-.2-1-.3-.9.5-.3 1 .1.2-.5.3-.1-.2-1-.3-.2.1-.4-.7-.6.3.4.7-.2.1-.3 1 .1.2-.5.3-.1-.2-1-.3-.9.5-.3 1 .1.2-.5.3-.1-.2-1-.3-.2.1-.4-.7-.6.3.4.7-.2.1-.3 1 .1.2-.6.3.3.6.6-.3.1.1 1 .3.2-.1.4.7.6-.3-.4-.7.2-.1.3-1-.1-.2.5-.3.1.2 1 .3.9-.5.3-1-.1-.2.5-.3.1.2 1 .3.2-.1.4.7.6-.3-.4-.7.2-.1.3-1-.1-.2.5-.3.1.2 1 .3.9-.5.3-1-.1-.2.5-.3.1.2 1 .3.2-.1.4.7.6-.3-.4-.7.2-.1.3-1-.1-.2.6-.3-.3-.6-.6.3-.2.1zM12 211.6l-.5-.1-.2-.4.1-.5.4-.2.5.1.2.4-.1.5-.4.2zm3.1-1.6l-.4.2-.5-.1-.2-.4.1-.5.4-.2.5.1.2.4-.1.5zm2.3-1.1l-.5-.1-.2-.4.1-.5.4-.2.5.1.2.4-.1.5-.4.2zm3.1-1.6l-.4.2-.5-.1-.2-.4.1-.5.4-.2.5.1.2.4-.1.5zm2.3-1.2l-.5-.1-.2-.4.1-.5.4-.2.5.1.2.4-.1.5-.4.2zM159.3 110c.2 0 .4-.2.4-.4v-1.7c0-.2-.2-.4-.4-.4H158v-2.6c0-.1-.1-.2-.2-.2h-2.3v-1.2c0-.2-.2-.4-.4-.4h-1.7c-.2 0-.4.2-.4.4v1.2h-2.3c-.1 0-.2.1-.2.2v2.7h-1.3c-.2 0-.4.2-.4.4v1.7c0 .2.2.4.4.4h1.3v4.3h-1.3c-.2 0-.4.2-.4.4v1.7c0 .2.2.4.4.4h1.3v2.3c0 .1.1.2.2.2h2.3v1.2c0 .2.2.4.4.4h1.7c.2 0 .4-.2.4-.4v-1.2h2.3c.1 0 .2-.1.2-.2v-2.3h1.3c.2 0 .4-.2.4-.4v-1.7c0-.2-.2-.4-.4-.4H158V110h1.3zm0-2v1.6h-1.2V108h1.2zm-5.9-4.5h1.7v1.2h-1.7v-1.2zm-4.2 6.1V108h1.2v1.6h-1.2zm0 6.8v-1.6h1.2v1.6h-1.2zm5.9 4.2h-1.7v-1.2h1.7v1.2zm2.5-1.7h-6.7v-13.8h6.7v13.8zm1.7-4.1v1.6h-1.2v-1.6h1.2z"></path><path class="st3" d="M154.7 110.1c.1 0 .1 0 .2-.1l.6-.6s.1-.1.1-.2v-.2h1.1c.1 0 .2-.1.2-.2s-.1-.2-.2-.2h-1.1v-.2c0-.1 0-.1-.1-.2l-.6-.6s-.1-.1-.2-.1h-.2v-1.1c0-.1-.1-.2-.2-.2s-.2.1-.2.2v1.1h-.2c-.1 0-.1 0-.2.1l-.6.6s-.1.1-.1.2v.2h-1.1c-.1 0-.2.1-.2.2s.1.2.2.2h1.1v.2c0 .1 0 .1.1.2l.6.6s.1.1.2.1h.2v.9h-.2c-.1 0-.1 0-.2.1l-.6.6s-.1.1-.1.2v.8c0 .1 0 .1.1.2l.6.6s.1.1.2.1h.2v.9h-.2c-.1 0-.1 0-.2.1l-.6.6s-.1.1-.1.2v.2h-1.1c-.1 0-.2.1-.2.2s.1.2.2.2h1.1v.2c0 .1 0 .1.1.2l.6.6s.1.1.2.1h.3v.9c0 .1.1.2.2.2s.2-.1.2-.2v-.9h.1c.1 0 .1 0 .2-.1l.6-.6s.1-.1.1-.2v-.2h1.1c.1 0 .2-.1.2-.2s-.1-.2-.2-.2h-1.1v-.2c0-.1 0-.1-.1-.2l-.6-.6s-.1-.1-.2-.1h-.2v-.9h.2c.1 0 .1 0 .2-.1l.6-.6s.1-.1.1-.2v-.8c0-.1 0-.1-.1-.2l-.6-.6s-.1-.1-.2-.1h-.2v-.9h.2zm.4 5.2v.7l-.5.5h-.7l-.5-.5v-.7l.5-.5h.7l.5.5zm0-3.4v.7l-.5.5h-.7l-.5-.5v-.7l.5-.5h.7l.5.5zm-1.7-2.8v-.7l.5-.5h.7l.5.5v.7l-.5.5h-.7l-.5-.5zM17.2 23h.4c.2 0 .4-.2.4-.4v-.4c0-.2-.2-.4-.4-.4h-.4c-.2 0-.4.2-.4.4v.4c0 .2.2.4.4.4zM15.4 21.9H15c-.2 0-.4.2-.4.4v.4c0 .2.2.4.4.4h.4c.2 0 .4-.2.4-.4v-.4c-.1-.3-.2-.4-.4-.4zM13.2 18.8v.6c0 .2.2.4.4.4s.4-.2.4-.4v-.6c.3-.1.5-.4.5-.7v-.4c0-.3-.2-.6-.5-.7v-.6c0-.2-.2-.4-.4-.4s-.4.2-.4.4v.6c-.3.1-.5.4-.5.7v.4c-.1.3.2.6.5.7zM19.7 21.9h-.4c-.2 0-.4.2-.4.4v.4c0 .2.2.4.4.4h.4c.2 0 .4-.2.4-.4v-.4c0-.3-.2-.4-.4-.4z"></path><path class="st3" d="M11.7 24.8H23c1.4 0 2.5-1.1 2.5-2.5v-6.5c0-1.4-1.1-2.5-2.5-2.5h-.5v-1.5c0-.8-.7-1.5-1.5-1.5h-.7c-.2 0-.4.2-.4.4s.2.4.4.4h.7c.4 0 .7.3.7.7v1.5h-4v-2.4c.8-.2 1.4-.9 1.4-1.7 0-1-.8-1.7-1.7-1.7s-1.7.8-1.7 1.7c0 .8.6 1.5 1.4 1.7v2.4h-4v-1.5c0-.4.3-.7.7-.7h.7c.2 0 .4-.2.4-.4s-.2-.4-.4-.4h-.7c-.8 0-1.5.7-1.5 1.5v1.5h-.5c-1.4 0-2.5 1.1-2.5 2.5v6.5c-.1 1.3 1 2.5 2.4 2.5zm4.7-15.7c0-.6.4-1 1-1s1 .4 1 1c0 .5-.4 1-.9 1-.7-.1-1.1-.5-1.1-1zm-6.5 6.6c0-1 .8-1.8 1.8-1.8H23c1 0 1.8.8 1.8 1.8v6.5c0 1-.8 1.8-1.8 1.8H11.7c-1 0-1.8-.8-1.8-1.8v-6.5z"></path><path class="st3" d="M13.6 20.8c1.6 0 2.9-1.3 2.9-2.9S15.2 15 13.6 15c-1.6 0-2.9 1.3-2.9 2.9-.1 1.6 1.3 2.9 2.9 2.9zm0-5.1c1.2 0 2.2 1 2.2 2.2s-1 2.2-2.2 2.2c-1.2 0-2.2-1-2.2-2.2 0-1.2 1-2.2 2.2-2.2zM21.2 20.8c1.6 0 2.9-1.3 2.9-2.9S22.8 15 21.2 15s-2.9 1.3-2.9 2.9c0 1.6 1.3 2.9 2.9 2.9zm0-5.1c1.2 0 2.2 1 2.2 2.2s-1 2.2-2.2 2.2c-1.2 0-2.2-1-2.2-2.2 0-1.2 1-2.2 2.2-2.2z"></path><path class="st3" d="M20.3 18.2c.1.3.4.5.7.5h.4c.3 0 .6-.2.7-.5h.6c.2 0 .4-.2.4-.4s-.2-.4-.4-.4h-.6c-.1-.2-.4-.4-.7-.4H21c-.3 0-.6.2-.7.5h-.6c-.2 0-.4.2-.4.4s.2.4.4.4h.6zM83.9 10.8l.2-.1.6-.6.1-.2v-.1h.9l.3-.3-.3-.3h-.9v-.1l-.1-.2-.6-.6H84v-.2.1h-.2v-.8l-.3-.3-.3.3v.8l-.2.1-.6.6-.2.1v.1h-.9l-.3.3.3.3h.9v.1l.1.2.6.6.2.1h.1v.6h-.1l-.2.1-.6.6-.1.2v.9l.1.2.6.6.1.1h.1v.6l-.2.1-.6.6-.1.2v.1h-.9l-.3.3.3.3h.9v.1l.1.2.6.6.2.1h.1v.6h-.1l-.2.1-.6.6-.1.2v.9l.1.2.6.6.2.1h.1v.5h-.3l-.6.6-.1.2v.1h-.9l-.3.3.3.3h.9v.1l.1.2.6.6.2.1v.8l.3.3.3-.3v-.8h.2l.2-.1.6-.6.1-.2v-.1h.9l.3-.3-.3-.3h-.9v-.1l-.1-.2-.6-.6H84v-.2.2h-.2v-.5h.1l.2-.1.6-.6.1-.2v-.9l-.1-.2-.6-.6H84v-.2.1h-.2v-.5h.1l.2-.1.6-.6.1-.2v-.1h.9l.3-.3-.3-.3h-.9v-.1l-.1-.2-.6-.6H84v-.2h-.2V14h.1l.2-.1.6-.6.1-.2v-.9l-.1-.2-.6-.6H84v-.2.2h-.2l.1-.6zm-1-1.2V9.3l.4-.4h.2V9l.1-.1h.2l.4.4v.2H84l.1.1v.2l-.4.4h-.2l-.1-.1-.1.1h-.2l-.4-.4v-.2zm.9 2.5l.4.4v.5l-.4.4h-.2l-.1-.1-.1.1h-.2l-.3-.4v-.5l.4-.4h.2l.1.1.1-.1h.1zm.3 3.7v.4l-.4.4h-.2l-.1-.1-.1.1h-.2l-.4-.4V16l.1-.1-.1-.1v-.2l.4-.4h.2l.1.1.1-.1h.2l.4.4v.2zm-.3 2.7l.4.4v.5l-.4.4h-.2l-.1-.1-.1.1h-.2l-.4-.4v-.5l.4-.4h.2l.1.1.1-.1h.2zm0 3.2l.4.4v.2H84l.1.1v.2l-.4.4h-.3l-.1-.1-.1.1h-.1l-.4-.4v-.2l.1-.1-.1-.1V22l.4-.4h.2l.1.1.1-.1h.3z"></path><path class="st3" d="M80.2 25.9h6.6l.2-.1.1-.2v-2h1.1l.2-.1.2-.2.1-.2v-1.7l-.1-.2-.2-.2h-1.3v-3.8h1.1l.2-.1.2-.2.1-.2V15l-.1-.2-.2-.2-.2-.1h-1.1v-3.8h1.1l.2-.1.2-.2.1-.2V8.5l-.1-.2-.2-.2-.2-.1h-1.1V6.1l-.1-.2h-.1v-.1h-.1l-.2-.1v.1h-6.4l-.2.1-.1.2v19.5l.1.3h.2zm6.2-2.6v1.9h-5.8V6.5h5.8v2l-.1.1.1.1v1.8l-.1.1.1.1V15l-.1.1.1.1V17l-.1.1.1.1v4.3l-.1.1.1.1v1.8-.2zm.7-1.6h.9v1.2h-.8v-1.2zm0-6.4h.9v1.2h-.8v-1.2zm0-6.4h.9v1.2h-.8V8.9zM158.2 235.3l.2-.1.2-.2.1-.2v-1.7l-.1-.2-.2-.2-.2-.1h-1.1v-2.1l-.1-.3h-.1v-.1h-.1l-.2-.1v.1h-6.4l-.3.1-.1.2v19.5l.1.3.2.1h6.6l.2-.1.1-.2v-2h1.1l.2-.1.2-.2.1-.2v-1.7l-.1-.2-.2-.2-.2-.1H157v-3.8h1.1l.2-.1.2-.2.1-.2v-1.7l-.1-.2-.2-.2-.2-.1H157V235h1.2zm-1.8-.3v4.3l-.1.1.1.1v1.8l-.1.1.1.1v4.3l-.1.1.1.1v1.8l-.1.1.1.1v1.9h-5.8v-18.8h5.8v2l-.1.1.1.1v1.8-.1zm.7-1.7h.8v1.2h-.8v-1.2zm0 12.8h.8v1.2h-.8v-1.2zm0-6.4h.8v1.2h-.8v-1.2z"></path><path class="st3" d="M153.9 235.3l.2-.1.6-.6.1-.2v-.1h.9l.3-.3-.3-.3h-.9v-.1l-.1-.2-.6-.6h-.1v-.2l-.1.1h-.2v-.8l-.3-.3-.3.3v.8l-.2.1-.6.6-.1.2v.1h-.9l-.3.3.3.3h.9v.1l.1.2.6.6.2.1h.1v.6h-.1l-.2.1-.6.6-.1.2v.9l.1.2.6.6.2.1h.1v.6l-.2.1-.6.6-.1.2v.1h-.9l-.3.3.3.3h.9v.1l.1.2.6.6.2.1h.1v.6h-.1l-.2.1-.6.6-.1.2v.9l.1.2.6.6.2.1h.1v.6l-.2.1-.6.6-.1.2v.1h-.9l-.3.3.3.3h.9v.1l.1.2.6.6.2.1v.8l.3.3.3-.3v-.8h.2l.2-.1.6-.6.1-.2v-.1h.9l.3-.3-.3-.3h-.9v-.1l-.1-.2-.6-.6h-.1v-.2l-.1.1h-.2v-.5h.1l.2-.1.6-.6.1-.2v-.9l-.1-.2-.6-.6h-.1v-.2l-.1.1h-.2v-.5h.1l.2-.1.6-.6.1-.2v-.1h.9l.3-.3-.3-.3h-.9v-.1l-.1-.2-.6-.6h-.1v-.2l-.1.1h-.2v-.5h.1l.2-.1.6-.6.1-.2v-.9l-.1-.2-.6-.6h-.1v-.2l-.1.1h-.2l.3-.9zm-1-1.3V233.7l.4-.4h.2l.1.1.1-.1h.2l.4.4v.2l-.3.1.1.1v.2l-.4.4h-.2l-.1-.1-.1.1h-.2l-.4-.4v-.3zm.8 2.5l.4.4v.5l-.4.4h-.2l-.1-.1-.1.1h-.2l-.4-.4v-.5l.4-.4h.2l.1.1.1-.1h.2zm.4 3.8v.4l-.4.4h-.2l-.1-.1-.1.1h-.2l-.4-.4v-.2l.1-.1-.1-.1v-.2l.4-.4h.2l.1.1.1-.1h.2l.4.4v.2zm-.4 2.6l.4.4v.5l-.4.4h-.2l-.1-.1-.1.1h-.2l-.4-.4v-.5l.4-.4h.2l.1.1.1-.1h.2zm.1 3.2l.4.4v.2l-.1.1.1.1v.2l-.4.4h-.3l-.1-.1-.1.1h-.1l-.4-.4v-.2l.1-.1-.1-.1v-.2l.4-.4h.2l.1.1.1-.1h.2zM17.4 86.8c3.8 0 6.9-3.1 6.9-6.9 0-3.8-3.1-6.9-6.9-6.9-3.8 0-6.9 3.1-6.9 6.9 0 3.8 3.1 6.9 6.9 6.9zm1.7-.8c.6-.6 1.1-1.5 1.5-2.5h2c-.8 1.2-2.1 2.1-3.5 2.5zm3.8-3h-2.2c.2-.8.3-1.8.4-2.8h2.6c-.1 1-.3 1.9-.8 2.8zm.8-3.3h-2.6c0-1-.1-1.9-.4-2.8h2.2c.5.8.7 1.8.8 2.8zm-1.1-3.3h-2c-.3-1.1-.9-1.9-1.5-2.5 1.4.4 2.7 1.3 3.5 2.5zm-5-2.8c1 .2 1.8 1.2 2.4 2.7h-2.4v-2.7zm0 3.3h2.5c.2.8.4 1.8.4 2.8h-2.9v-2.8zm0 3.3h2.9c0 1-.2 1.9-.4 2.8h-2.5v-2.8zm0 3.3H20c-.5 1.5-1.4 2.6-2.4 2.7v-2.7zM11 80.2h2.6c0 1 .1 1.9.4 2.8h-2.2c-.4-.9-.7-1.8-.8-2.8zm1.1 3.3h2c.3 1.1.8 1.9 1.5 2.5-1.4-.4-2.6-1.3-3.5-2.5zm5 2.8c-1-.2-1.8-1.2-2.4-2.7h2.4v2.7zm0-3.3h-2.5c-.2-.8-.4-1.8-.4-2.8h2.9V83zm0-3.3h-2.9c0-1 .2-1.9.4-2.8h2.5v2.8zm0-6.1v2.7h-2.4c.6-1.4 1.4-2.5 2.4-2.7zm-1.5.3c-.6.6-1.1 1.5-1.5 2.5h-2c.9-1.2 2.1-2.1 3.5-2.5zm-3.8 3H14c-.2.8-.3 1.8-.4 2.8H11c.1-1 .4-2 .8-2.8zM56.8 90l.1-.2v-2H58l.2-.1.2-.2.1-.2v-1.7l-.1-.2-.2-.2-.2-.1h-1.1v-3.8H58l.2-.1.2-.2.1-.2v-1.7l-.1-.1-.2-.2-.2-.1h-1.1V75H58l.2-.1.2-.2.1-.2v-1.7l-.1-.2-.2-.2-.2-.1h-1.1v-2.1l-.1-.2h-.1v-.1h-.1l-.2-.1v.1H50l-.2.1-.1.2v19.5l.1.3.2.1h6.6l.2-.1zm-.6-2.5v1.9h-5.8V70.6h5.8v2l-.1.1.1.1v1.8l-.1.1.1.1V79l-.1.1.1.1V81h-.1l.1.1v4.3l-.1.1.1.1V87.5zm.7-1.7h.8V87h-.8v-1.2zm0-6.4h.8v1.2h-.8v-1.2zm0-6.4h.8v1.2h-.8V73z"></path><path class="st3" d="M53.7 74.9l.2-.1.6-.6.1-.2v-.1h.9l.3-.3-.3-.3h-.9v-.1l-.1-.2-.6-.6h-.1v-.2l-.1.1h-.2v-.8l-.3-.3-.3.3v.8l-.2.1-.6.6-.1.2v.1h-.9l-.3.3.3.3h.9v.1l.1.2.6.6.2.1h.1v.6h-.1l-.2.1-.6.6-.1.2v.9l.1.2.6.6.2.1h.1v.6l-.2.1-.6.6-.2.1v.1h-.9l-.4.3.3.3h1v.1l.1.2.6.6.2.1h.1v.6h-.1l-.2.1-.6.6-.1.2v.9l.1.2.6.6.2.1h.1v.6l-.2.1-.6.6-.2.1v.1h-.9l-.3.3.3.3h.9V87l.6.6.2.1v.8l.3.3.3-.3v-.8h.2l.2-.1.6-.6.1-.2v-.1h.9l.3-.3-.3-.3h-.9V86l-.1-.2-.6-.6h-.1V85l-.1.1h-.2v-.5h.1l.2-.1.6-.6.1-.2v-.9l-.1-.2-.4-.6h-.1v-.2l-.1.1h-.2v-.5h.1l.2-.1.6-.6.1-.2v-.1h.9l.3-.3-.3-.3h-.9v-.1l-.1-.2-.6-.6h-.1v-.2l-.1.1h-.2v-.5h.1l.2-.1.6-.6.1-.2v-.9l-.1-.2-.6-.6h-.1v-.2l-.1.1h-.2l.4-.7zm-1-1.2V73.4l.3-.4h.2l.1.1.1-.1h.2l.4.4v.2l-.1.1.1.1v.2l-.4.4h-.2l-.1-.1-.1.1H53l-.4-.4v-.3zm.8 2.5l.4.4v.5l-.4.4h-.2l-.1-.1-.1.1H53l-.4-.4v-.5l.4-.4h.2l.1.1.1-.1h.1zm.4 3.8v.4l-.4.4h-.2l-.1-.1-.1.1H53l-.4-.4v-.2l.1-.1V79.8l.4-.4h.2l.1.1.1-.1h.2l.4.4v.2zm-.4 2.6l.4.4v.5l-.4.4h-.2l-.1-.1-.1.1H53l-.4-.4V83l.4-.4h.2l.1.1.1-.1h.1zm0 3.2l.4.4v.2l-.1.1.1.1v.2l-.4.2H53l-.4-.4v-.2l.1-.1-.1-.1V86l.4-.4h.2l.1.1.1-.1h.1zM127.9 78.9c.1 0 .2-.1.3-.2.1-.1.1-.2.1-.3-.2-.9-.6-1.8-1.1-2.6-.1-.1-.2-.2-.3-.2-.1 0-.2 0-.2.1-.2.2-.4.2-.7.2-.3 0-.5-.1-.7-.3-.4-.4-.4-1-.1-1.4.1-.1.1-.2.1-.3 0-.1-.1-.2-.2-.3-.8-.5-1.7-.9-2.7-1.1-.1 0-.2 0-.2.1-.1.1-.1.2-.2.3-.1.5-.5.9-1 .9s-1-.4-1-.9c0-.1-.1-.2-.2-.3-.1 0-.1-.1-.3-.1h-.1c-.9.2-1.8.6-2.6 1.1-.1.1-.2.2-.2.3 0 .1 0 .2.1.3.3.4.3 1-.1 1.4-.2.2-.5.3-.7.3-.2 0-.5-.1-.7-.2-.1-.1-.1-.1-.3-.1-.1 0-.2.1-.3.2-.5.8-.9 1.7-1.1 2.6 0 .1 0 .2.1.3.1.1.2.1.3.2.5.1.9.5.9 1s-.4 1-.9 1c-.1 0-.2.1-.3.2-.1.1-.1.2-.1.3.2.9.6 1.8 1.1 2.6.1.1.2.2.3.2.1 0 .2 0 .2-.1.2-.2.4-.2.7-.2.3 0 .5.1.7.3.4.4.4 1 .1 1.4-.1.1-.1.2-.1.3 0 .1.1.2.2.3.8.5 1.7.9 2.7 1.1.1 0 .2 0 .2-.1.1-.1.1-.2.2-.3.1-.5.5-.9 1-.9s1 .4 1 .9c0 .1.1.2.2.3.1 0 .1.1.2.1h.1c.9-.2 1.8-.6 2.6-1.1.1-.1.2-.2.2-.3 0-.1 0-.2-.1-.3-.3-.4-.3-1 .1-1.4.2-.2.5-.3.7-.3.2 0 .5.1.7.2.1.1.1.1.3.1.1 0 .2-.1.3-.2.5-.8.9-1.7 1.1-2.6 0-.1 0-.2-.1-.3-.1-.1-.2-.1-.3-.2-.5-.1-.9-.5-.9-1s.5-.9 1-1zm-.6 2.7c.1 0 .1.1.1.2-.1.5-.3.9-.6 1.4l-.1.1h-.1c-.2-.1-.4-.1-.7-.1-.5 0-.9.2-1.3.5-.5.5-.7 1.3-.4 2 0 .1 0 .1-.1.2-.4.2-.9.4-1.4.6-.1 0-.1 0-.1-.1-.3-.7-1-1.1-1.7-1.1s-1.4.4-1.7 1.1c0 .1-.1.1-.1.1-.5-.1-.9-.3-1.4-.6-.1 0-.1-.1-.1-.2.3-.7.1-1.4-.4-2-.3-.3-.8-.5-1.3-.5-.2 0-.5 0-.7.1h-.1c-.1 0-.1 0-.1-.1-.2-.4-.4-.9-.6-1.4 0-.1 0-.1.1-.2.7-.3 1.1-1 1.1-1.7s-.4-1.4-1.1-1.7c-.1 0-.1-.1-.1-.2.1-.5.3-.9.6-1.4l.1-.1h.1c.2.1.4.1.7.1.5 0 1-.2 1.3-.5.5-.5.7-1.3.4-2 0-.1 0-.1.1-.2.4-.2.9-.4 1.4-.6.1 0 .1 0 .1.1.3.7 1 1.1 1.7 1.1s1.4-.4 1.7-1.1c0-.1.1-.1.1-.1.5.1.9.3 1.4.6.1 0 .1.1.1.2-.3.7-.1 1.4.4 2 .3.3.8.5 1.3.5.2 0 .5 0 .7-.1h.1c.1 0 .1 0 .1.1.2.4.4.9.6 1.4 0 .1 0 .1-.1.2-.7.3-1.1.9-1.1 1.7 0 .8.4 1.4 1.1 1.7z"></path><path class="st3" d="M121 76.6c-1.9 0-3.4 1.5-3.4 3.4s1.5 3.4 3.4 3.4 3.4-1.5 3.4-3.4-1.6-3.4-3.4-3.4zm0 5.9c-1.4 0-2.6-1.2-2.6-2.6 0-1.4 1.2-2.6 2.6-2.6 1.4 0 2.6 1.2 2.6 2.6-.1 1.5-1.2 2.6-2.6 2.6zM47.1 17.1c-.1 0-.2.1-.3.2-.1.1-.1.2-.1.3.2.9.6 1.8 1.1 2.6.1.1.2.2.3.2.1 0 .2 0 .2-.1.2-.2.4-.2.7-.2.3 0 .5.1.7.3.4.4.4 1 .1 1.4-.1.1-.1.2-.1.3 0 .1.1.2.2.3.8.5 1.7.9 2.7 1.1.1 0 .2 0 .2-.1.1-.1.1-.2.2-.3.1-.5.5-.9 1-.9s1 .4 1 .9c0 .1.1.2.2.3.1.1.1.1.2.1h.1c.9-.2 1.8-.6 2.6-1.1.1-.1.2-.2.2-.3 0-.1 0-.2-.1-.3-.3-.4-.3-1 .1-1.4.2-.2.5-.3.7-.3.2 0 .5.1.7.2.1.1.1.1.3.1.1 0 .2-.1.3-.2.5-.8.9-1.7 1.1-2.6 0-.1 0-.2-.1-.3-.1-.1-.2-.1-.3-.2-.5-.1-.9-.5-.9-1s.4-1 .9-1c.1 0 .2-.1.3-.2.1-.1.1-.2.1-.3-.2-.9-.6-1.8-1.1-2.6-.1-.1-.2-.2-.3-.2-.1 0-.2 0-.2.1-.2.2-.4.2-.7.2-.3 0-.5-.1-.7-.3-.4-.4-.4-1-.1-1.4.1-.1.1-.2.1-.3 0-.1-.1-.2-.2-.3-.8-.5-1.7-.9-2.7-1.1-.1 0-.2 0-.2.1-.1.1-.1.2-.2.3-.1.5-.5.9-1 .9s-1-.4-1-.9c0-.1-.1-.2-.2-.3-.1 0-.1-.1-.3-.1h-.1c-.9.2-1.8.6-2.6 1.1-.1.1-.2.2-.2.3 0 .1 0 .2.1.3.3.4.3 1-.1 1.4-.2.2-.5.3-.7.3-.2 0-.5-.1-.7-.2-.1-.1-.1-.1-.3-.1-.1 0-.2.1-.3.2-.5.8-.9 1.7-1.1 2.6 0 .1 0 .2.1.3.2.1.3.1.4.1.5.1.9.5.9 1 0 .6-.4 1.1-.9 1.1zm.6-2.7c-.1 0-.1-.1-.1-.2.1-.5.3-.9.6-1.4l.1-.1h.1c.2.1.4.1.7.1.5 0 1-.2 1.3-.5.5-.5.7-1.3.4-2 0-.1 0-.1.1-.2.4-.2.9-.4 1.4-.6.1 0 .1 0 .1.1.3.7.9 1.1 1.7 1.1s1.4-.4 1.7-1.1c0-.1.1-.1.1-.1.5.1.9.3 1.4.6.1 0 .1.1.1.2-.3.7-.1 1.4.4 2 .3.3.8.5 1.3.5.2 0 .5 0 .7-.1h.1c.1 0 .1 0 .1.1.2.4.4.9.6 1.4 0 .1 0 .1-.1.2-.7.3-1.1.9-1.1 1.7 0 .7.4 1.4 1.1 1.7.1 0 .1.1.1.2-.1.5-.3.9-.6 1.4l-.1.1h-.1c-.2-.1-.4-.1-.7-.1-.5 0-.9.2-1.3.5-.5.5-.7 1.3-.4 2 0 .1 0 .1-.1.2-.4.2-.9.4-1.4.6-.1 0-.1 0-.1-.1-.3-.7-1-1.1-1.7-1.1s-1.4.4-1.7 1.1c0 .1-.1.1-.1.1-.5-.1-.9-.3-1.4-.6-.1 0-.1-.1-.1-.2.3-.7.1-1.4-.4-2-.3-.3-.8-.5-1.3-.5-.2 0-.5 0-.7.1h-.1c-.1 0-.1 0-.1-.1-.2-.4-.4-.9-.6-1.4 0-.1 0-.1.1-.2.7-.3 1.1-1 1.1-1.7s-.4-1.4-1.1-1.7z"></path><path class="st3" d="M54.1 19.4c1.9 0 3.4-1.5 3.4-3.4s-1.5-3.4-3.4-3.4-3.4 1.5-3.4 3.4 1.5 3.4 3.4 3.4zm0-5.9c1.4 0 2.6 1.2 2.6 2.6 0 1.4-1.2 2.6-2.6 2.6-1.4 0-2.6-1.2-2.6-2.6 0-1.5 1.1-2.6 2.6-2.6z"></path><path class="st26" d="M0 0h170.1v256.1H0z"></path></svg> 