<?xml version="1.0" encoding="UTF-8"?> <svg xmlns="http://www.w3.org/2000/svg" xmlns:xlink="http://www.w3.org/1999/xlink" id="Layer_1" viewBox="0 0 288.9 446"><style>.st0{clip-path:url(#SVGID_1_)}.st1{fill:#fdf383}.st2{fill:#20a0db}.st3{fill:#fff}.st4{fill:none;stroke:#fff;stroke-width:1.9466;stroke-miterlimit:10}.st5{fill:#ef4974}.st6,.st7{fill:none;stroke:#fff;stroke-width:1.2977;stroke-miterlimit:10}.st7{stroke-width:1.9756}</style><defs><path id="SVGID_3_" d="M0 0h288.9v446H0z"></path></defs><clipPath id="SVGID_1_"><use xlink:href="#SVGID_3_" overflow="visible"></use></clipPath><g class="st0"><path class="st1" d="M94 296.2h64.2l45.4 45.4v64.1L50.3 559-59.2 449.4z"></path><path class="st2" d="M83.4 366.4h39.2l27.7 27.7v39.2L37.5 546.1l-66.9-66.8z"></path><path class="st3" d="M75.6 121.5H62l-9.7-9.7V98.2l9.7-9.7h13.7l9.7 9.7v13.7l-9.8 9.6zm-12.9-1.7h12.2l8.7-8.7V98.9l-8.7-8.7H62.7L54 98.9v12.2l8.7 8.7z"></path><path class="st3" d="M65.1 97.4l11.5 6.6c.6.3.6 1.2 0 1.5l-11.5 6.6c-.6.3-1.3-.1-1.3-.8V98.1c0-.6.8-1.1 1.3-.7z"></path><path class="st3" d="M64.7 113.2c-.3 0-.6-.1-.9-.2-.5-.3-.9-.9-.9-1.5V98.1c0-.6.3-1.2.9-1.5.5-.3 1.2-.3 1.7 0l11.5 6.6c.5.3.9.9.9 1.5s-.3 1.2-.9 1.5l-11.5 6.6c-.2.3-.5.4-.8.4zm0-15.1v13.3l11.6-6.6-11.6-6.7zM68.8 173.2V187M68 173.2h1.7v13.7H68zM68.8 210v36.8M68 210h1.7v36.8H68zM67.4 121.3h1.7v28.8h-1.7zM67.4 79.1h1.7v9.2h-1.7zM67.4 39.4h1.7v15.3h-1.7z"></path><path class="st3" d="M99.4 174.2H37v-24.9h62.4v24.9zm-60.7-1.7h59V151h-59v21.5zM89.4 40.2H47.1c-5.6 0-10.1-4.5-10.1-10.1v-4.7c0-5.6 4.5-10.1 10.1-10.1h42.2c5.6 0 10.1 4.5 10.1 10.1v4.7c0 5.6-4.5 10.1-10 10.1zM47.1 17.1c-4.6 0-8.4 3.8-8.4 8.4v4.7c0 4.6 3.8 8.4 8.4 8.4h42.2c4.6 0 8.4-3.8 8.4-8.4v-4.7c0-4.6-3.8-8.4-8.4-8.4H47.1zM89.4 211H47.1c-5.6 0-10.1-4.5-10.1-10.1v-4.7c0-5.6 4.5-10.1 10.1-10.1h42.2c5.6 0 10.1 4.5 10.1 10.1v4.7c0 5.6-4.5 10.1-10 10.1zm-42.3-23.2c-4.6 0-8.4 3.8-8.4 8.4v4.7c0 4.6 3.8 8.4 8.4 8.4h42.2c4.6 0 8.4-3.8 8.4-8.4v-4.7c0-4.6-3.8-8.4-8.4-8.4H47.1zM68.2 81.1l-.3-.1-33.8-13.6 34.2-13.7.3.1 33.8 13.5-34.2 13.8zM38.7 67.4l29.6 11.8 29.6-11.8-29.7-11.8-29.5 11.8zM130.7 131.4H68.2v-1.7H129v-18.3h1.7z"></path><g><path class="st3" d="M130.7 88.2H129v-20h-28.9v-1.7h30.6z"></path></g><g><circle class="st3" cx="68.8" cy="233.7" r="4"></circle><path class="st3" d="M68.8 238.5c-2.7 0-4.8-2.2-4.8-4.8 0-2.7 2.2-4.8 4.8-4.8 2.7 0 4.8 2.2 4.8 4.8 0 2.6-2.1 4.8-4.8 4.8zm0-7.9c-1.7 0-3.1 1.4-3.1 3.1 0 1.7 1.4 3.1 3.1 3.1 1.7 0 3.1-1.4 3.1-3.1 0-1.7-1.4-3.1-3.1-3.1z"></path></g><g><path class="st3" d="M153.4 112.2h-48.3V87.3h48.3v24.9zm-46.6-1.7h44.9V89h-44.9v21.5z"></path></g><path class="st4" d="M258 250.5l-5.3-2.2-5.3 2.2-32.3 32.3-2.1 5.2 2.1 5.3 5.3 2.2 5.3-2.2L258 261l2.2-5.2z"></path><path class="st5" d="M258.7 311.2l6.3 6.3v8.8l-6.3 6.3h-8.9l-6.2-6.3v-8.8l6.2-6.3z"></path><path class="st6" d="M153.7 40.8l-3-2.2v-8.4h-8.4l-2.2-3v-3.3l2.2-3.1h8.4v-8.3l3-2.2h3.3l3.1 2.2v8.3h8.3l2.2 3.1v3.3l-2.2 3h-8.3v8.4l-3.1 2.2z"></path><g><path class="st5" d="M47.9 294.2l20.6 20.6-.1.1 23.3 23.3h9.5l6.7-6.7V322l-5.1-5.1h.1l-32.2-32.2v-8.9l6.3-6.3h8.9l13.9 13.9-.1.1 23.3 23.3h9.5l6.7-6.7v-9.5l-5.1-5.1h.1l-38.9-38.9H67.5l-19.6 19.6v28zm52.9 30.8v3.5l-2.5 2.5h-3.5l-2.5-2.5V325l2.5-2.5h3.5l2.5 2.5zm-36.3-32.8H68l2.5 2.5v3.5l-2.5 2.5h-3.5l-2.5-2.5v-3.5l2.5-2.5zm67.5 1.5v3.5l-2.5 2.5H126l-2.5-2.5v-3.5l2.5-2.5h3.5l2.5 2.5zm-36.2-32.8h3.5l2.5 2.5v3.5l-2.5 2.5h-3.5l-2.5-2.5v-3.5l2.5-2.5z"></path></g><path class="st7" d="M108 386.2h12l8.5 8.5v12l-8.5 8.5h-12l-8.5-8.5v-12z"></path><g><path class="st3" d="M246.3 390.2l-1.3-1.9v-2l1.3-1.9h5.1v-5.1l1.9-1.3h2l1.9 1.3v5.1h5.1l1.3 1.9v2l-1.3 1.9h-5.1v5.1l-1.9 1.3h-2l-1.9-1.3v-5.1h-5.1m9-31.9h-2.1l-1.9 3.1v3.5l-5.7 1.5-1.7-3-3.2-1.7-1.8 1-.1 3.6 1.7 3-4.2 4.2-3-1.7-3.6.1-1 1.8 1.7 3.2 3 1.7-1.5 5.7h-3.5l-3.1 1.9v2.1l3.1 1.9h3.5l1.5 5.7-3 1.7-1.7 3.2 1 1.8 3.6.1 3-1.7 4.2 4.2-1.7 3 .1 3.6 1.8 1 3.2-1.7 1.7-3 5.7 1.5v3.5l1.9 3.1h2.1l1.9-3.1v-3.5l5.7-1.5 1.7 3 3.2 1.7 1.8-1 .1-3.6-1.7-3 4.2-4.2 3 1.7 3.6-.1 1-1.8-1.7-3.2-3-1.7 1.5-5.7h3.5l3.1-1.9v-2.1l-3.1-1.9h-3.5l-1.5-5.7 3-1.7 1.7-3.2-1-1.8-3.6-.1-3 1.7-4.2-4.2 1.7-3-.1-3.6-1.8-1-3.2 1.7-1.7 3-5.7-1.5v-3.5l-1.9-3.1"></path></g></g></svg> 