<?xml version="1.0" encoding="UTF-8"?> <svg xmlns="http://www.w3.org/2000/svg" xmlns:xlink="http://www.w3.org/1999/xlink" id="Layer_1" viewBox="0 0 186.6 231.4"><style>.st0{clip-path:url(#SVGID_1_)}.st5{fill:#ef4974}.st9{fill:#fcf285}.st10{fill:none;stroke:#ef4974;stroke-width:1.7201;stroke-miterlimit:10}.st11{fill:#83d1f5}.st12{fill:#209fda}</style><defs><path id="SVGID_2_" d="M0 0h186.6v231.4H0z"></path></defs><clipPath id="SVGID_1_"><use xlink:href="#SVGID_2_" overflow="visible"></use></clipPath><g class="st0"><path class="st9" d="M160.8-31.8l94 94-141.4 141.4h-55l-39-39v-55z"></path><path class="st10" d="M150.6-58.4h23.8l16.8 16.8v23.7L51.5 121.7H27.8L11 104.9V81.2z"></path><path class="st11" d="M155.8 186.7l3.7-9-3.7-8.9-54.5-54.6-9-3.7-8.9 3.7-3.7 9 3.7 8.9 54.6 54.6 8.9 3.7z"></path><path class="st5" d="M47.4 176.3H35.1l-4.1 4.1v5.9l4.1 4.1h6.4l3.9 3.9v5.5l-3.9 3.9H9l-4.1 4.1v5.9l4.1 4.1h38.6l12.2-12.2v-17.2l-12.4-12.1zm-6.4 8.2l-1.6 1.6h-2.2l-1.6-1.6v-2.2l1.6-1.6h2.2l1.6 1.6v2.2zm-30.2 28.9l-1.6-1.6v-2.2l1.6-1.6H13l1.6 1.6v2.2l-1.6 1.6h-2.2zm30.2-1.5l-1.6 1.6h-2.2l-1.6-1.6v-2.2l1.6-1.6h2.2l1.6 1.6v2.2z"></path><path class="st12" d="M32.1 78.8h12.7l8.9 9v12.6l-8.9 8.9H32.1l-8.9-8.9V87.8z"></path><path class="st5" d="M69.8 151.7l1.4 1.3v2l-1.4 1.4h-1.9l-1.4-1.4v-2l1.4-1.3zM76.5 158.4l1.4 1.4v1.9l-1.4 1.4h-1.9l-1.4-1.4v-1.9l1.4-1.4zM83.2 165.1l1.4 1.4v1.9l-1.4 1.4h-1.9l-1.4-1.4v-1.9l1.4-1.4z"></path><g><path class="st5" d="M63.1 158.4l1.4 1.4v1.9l-1.4 1.4h-1.9l-1.4-1.4v-1.9l1.4-1.4zM69.8 165.1l1.4 1.4v1.9l-1.4 1.4h-1.9l-1.4-1.4v-1.9l1.4-1.4zM76.5 171.8l1.4 1.4v1.9l-1.4 1.4h-1.9l-1.4-1.4v-1.9l1.4-1.4z"></path></g><g><path class="st5" d="M56.4 165.1l1.4 1.4v1.9l-1.4 1.4h-2l-1.3-1.4v-1.9l1.3-1.4zM63.1 171.8l1.4 1.4v1.9l-1.4 1.4h-1.9l-1.4-1.4v-1.9l1.4-1.4zM69.8 178.5l1.4 1.4v1.9l-1.4 1.4h-1.9l-1.4-1.4v-1.9l1.4-1.4z"></path></g></g></svg> 