<?xml version="1.0" encoding="UTF-8"?> <svg xmlns="http://www.w3.org/2000/svg" xmlns:xlink="http://www.w3.org/1999/xlink" id="Layer_1" viewBox="0 0 237 244"><style>.st0{clip-path:url(#SVGID_1_)}.st5{fill:#ef4974}</style><defs><path id="SVGID_5_" d="M0 0h237v244H0z"></path></defs><clipPath id="SVGID_1_"><use xlink:href="#SVGID_5_" overflow="visible"></use></clipPath><path clip-path="url(#SVGID_1_)" fill="#dbdddd" d="M25.6 36l-1.4-1.3v-2l1.4-1.3h2l1.3 1.3v2L27.6 36zM72.4 36l-1.3-1.3v-2l1.3-1.3h2l1.3 1.3v2L74.4 36zM119.3 36l-1.4-1.3v-2l1.4-1.3h1.9l1.4 1.3v2l-1.4 1.3zM166.1 36l-1.4-1.3v-2l1.4-1.3h1.9l1.4 1.3v2L168 36zM212.9 36l-1.4-1.3v-2l1.4-1.3h1.9l1.4 1.3v2l-1.4 1.3zM25.6 81.9l-1.4-1.4v-1.9l1.4-1.4h2l1.3 1.4v1.9l-1.3 1.4zM72.4 81.9l-1.3-1.4v-1.9l1.3-1.4h2l1.3 1.4v1.9l-1.3 1.4zM119.3 81.9l-1.4-1.4v-1.9l1.4-1.4h1.9l1.4 1.4v1.9l-1.4 1.4zM166.1 81.9l-1.4-1.4v-1.9l1.4-1.4h1.9l1.4 1.4v1.9l-1.4 1.4zM212.9 81.9l-1.4-1.4v-1.9l1.4-1.4h1.9l1.4 1.4v1.9l-1.4 1.4zM25.6 128.8l-1.4-1.4v-2l1.4-1.3h2l1.3 1.3v2l-1.3 1.4zM72.4 128.8l-1.3-1.4v-2l1.3-1.3h2l1.3 1.3v2l-1.3 1.4zM119.3 128.8l-1.4-1.4v-2l1.4-1.3h1.9l1.4 1.3v2l-1.4 1.4zM166.1 128.8l-1.4-1.4v-2l1.4-1.3h1.9l1.4 1.3v2l-1.4 1.4zM212.9 128.8l-1.4-1.4v-2l1.4-1.3h1.9l1.4 1.3v2l-1.4 1.4zM25.6 175.6l-1.4-1.4v-1.9l1.4-1.4h2l1.3 1.4v1.9l-1.3 1.4zM72.4 175.6l-1.3-1.4v-1.9l1.3-1.4h2l1.3 1.4v1.9l-1.3 1.4zM119.3 175.6l-1.4-1.4v-1.9l1.4-1.4h1.9l1.4 1.4v1.9l-1.4 1.4zM166.1 175.6l-1.4-1.4v-1.9l1.4-1.4h1.9l1.4 1.4v1.9l-1.4 1.4zM212.9 175.6l-1.4-1.4v-1.9l1.4-1.4h1.9l1.4 1.4v1.9l-1.4 1.4zM25.6 222.4l-1.4-1.3v-2l1.4-1.3h2l1.3 1.3v2l-1.3 1.3zM72.4 222.4l-1.3-1.3v-2l1.3-1.3h2l1.3 1.3v2l-1.3 1.3zM119.3 222.4l-1.4-1.3v-2l1.4-1.3h1.9l1.4 1.3v2l-1.4 1.3zM166.1 222.4l-1.4-1.3v-2l1.4-1.3h1.9l1.4 1.3v2l-1.4 1.3zM212.9 222.4l-1.4-1.3v-2l1.4-1.3h1.9l1.4 1.3v2l-1.4 1.3z"></path><path clip-path="url(#SVGID_1_)" fill="#fcf285" d="M76.6 132.6h45.6l32.3 32.3v45.6L-2.3 367.3l-78-77.9z"></path><path clip-path="url(#SVGID_1_)" fill="#209fda" d="M84.6 167h33.2l23.5 23.6v33.2l-128.9 129-56.8-56.8z"></path><path clip-path="url(#SVGID_1_)" fill="#ef4974" d="M199.5 17.9l1.4 1.3v2l-1.4 1.4h-1.9l-1.4-1.4v-2l1.4-1.3zM206.2 24.6l1.4 1.4v1.9l-1.4 1.4h-1.9l-1.4-1.4V26l1.4-1.4zM213 31.3l1.3 1.4v1.9L213 36h-2l-1.4-1.4v-1.9l1.4-1.4zM192.8 24.6l1.4 1.4v1.9l-1.4 1.4h-1.9l-1.4-1.4V26l1.4-1.4zM199.5 31.3l1.4 1.4v1.9l-1.4 1.4h-1.9l-1.4-1.4v-1.9l1.4-1.4zM206.2 38l1.4 1.4v1.9l-1.4 1.4h-1.9l-1.4-1.4v-1.9l1.4-1.4zM186.1 31.3l1.4 1.4v1.9l-1.4 1.4h-1.9l-1.4-1.4v-1.9l1.4-1.4zM192.8 38l1.4 1.4v1.9l-1.4 1.4h-1.9l-1.4-1.4v-1.9l1.4-1.4zM199.5 44.7l1.4 1.4v2l-1.4 1.3h-1.9l-1.4-1.3v-2l1.4-1.4z"></path><path clip-path="url(#SVGID_1_)" fill="none" stroke="#fff" stroke-width="1.9466" stroke-miterlimit="10" d="M193.3 100.1l-3.8-1.6-3.8 1.6-22.9 22.9-1.6 3.8 1.6 3.7 3.7 1.6 3.8-1.6 23-22.9 1.5-3.8z"></path><path clip-path="url(#SVGID_1_)" fill="#ef4974" d="M193.8 143.2l4.4 4.5v6.3l-4.4 4.5h-6.4L183 154v-6.3l4.4-4.5z"></path><g class="st0"><path class="st5" d="M43.8 131.2l14.7 14.7L75 162.5h6.7l4.8-4.8V151l-3.6-3.6h.1l-23-22.9v-6.3l4.5-4.5h6.3l9.9 9.9 16.6 16.6h6.7l4.8-4.8v-6.7l-3.6-3.6h.1L77.5 97.5H57.7l-14 14 .1 19.7zm37.6 21.9v2.5l-1.8 1.8h-2.5l-1.8-1.8v-2.5l1.8-1.8h2.5l1.8 1.8zm-25.8-23.4h2.5l1.8 1.8v2.5l-1.8 1.8h-2.5l-1.8-1.8v-2.5l1.8-1.8zm48 1.1v2.5l-1.8 1.8h-2.5l-1.8-1.8v-2.5l1.8-1.8h2.5l1.8 1.8zm-25.8-23.3h2.5l1.8 1.8v2.5l-1.8 1.8h-2.5l-1.8-1.8v-2.5l1.8-1.8z"></path></g><path clip-path="url(#SVGID_1_)" fill="#fff" d="M92.1 185.8h18.1l12.8 12.8v18.1l-12.8 12.8H92.1l-12.8-12.8v-18.1z"></path><path clip-path="url(#SVGID_1_)" fill="none" stroke="#fff" stroke-width="1.9756" stroke-miterlimit="10" d="M88 176h8.6l6 6v8.6l-6 6H88l-6-6V182z"></path><path d="M184.9 199.5l-.9-1.3v-1.4l.9-1.3h3.6v-3.6l1.3-.9h1.4l1.3.9v3.6h3.6l.9 1.3v1.4l-.9 1.3h-3.6v3.6l-1.3.9h-1.4l-1.3-.9v-3.6h-3.6m6.4-22.7h-1.5l-1.4 2.2v2.5l-4.1 1.1-1.2-2.1-2.3-1.2-1.3.7-.1 2.6 1.2 2.1-3 3-2.1-1.2-2.6.1-.7 1.3 1.2 2.3 2.1 1.2-1.1 4.1h-2.5l-2.2 1.4v1.5l2.2 1.4h2.5l1.1 4.1-2.1 1.2-1.2 2.3.7 1.3 2.6.1 2.1-1.2 3 3-1.2 2.1.1 2.6 1.3.7 2.3-1.2 1.2-2.1 4.1 1.1v2.5l1.4 2.2h1.5l1.4-2.2v-2.5l4.1-1.1 1.2 2.1 2.3 1.2 1.3-.7.1-2.6-1.2-2.1 3-3 2.1 1.2 2.6-.1.7-1.3-1.2-2.3-2.1-1.2 1.1-4.1h2.5l2.2-1.4v-1.5l-2.2-1.4h-2.5l-1.1-4.1 2.1-1.2 1.2-2.3-.7-1.3-2.6-.1-2.1 1.2-3-3 1.2-2.1-.1-2.6-1.3-.7-2.3 1.2-1.2 2.1-4.1-1.1V179l-1.4-2.2" clip-path="url(#SVGID_1_)" fill="#dbdddd"></path></svg> 